<?xml version="1.0" encoding="UTF-8" standalone="no"?>
<!DOCTYPE svg PUBLIC "-//W3C//DTD SVG 1.1//EN"
 "http://www.w3.org/Graphics/SVG/1.1/DTD/svg11.dtd">
<!-- Generated by graphviz version 2.43.0 (0)
 -->
<!-- Title: StateMachine Pages: 1 -->
<svg width="499pt" height="522pt"
 viewBox="0.00 0.00 499.00 522.00" xmlns="http://www.w3.org/2000/svg" xmlns:xlink="http://www.w3.org/1999/xlink">
<g id="graph0" class="graph" transform="scale(1 1) rotate(0) translate(4 518)">
<title>StateMachine</title>
<polygon fill="white" stroke="transparent" points="-4,4 -4,-518 495,-518 495,4 -4,4"/>
<!-- annotation -->
<g id="node1" class="node">
<title>annotation</title>
<text text-anchor="middle" x="245.5" y="-14.9" font-family="Helvetica,sans-Serif" font-size="12.00">ABORT and TICKING outcomes exit the state machine unless specified explicitly</text>
</g>
<!-- entry -->
<g id="node2" class="node">
<title>entry</title>
<ellipse fill="black" stroke="black" cx="245.5" cy="-507" rx="7" ry="7"/>
</g>
<!-- e68a2238&#45;590c&#45;413e&#45;8883&#45;5eca41b64014 -->
<g id="node3" class="node">
<title>e68a2238&#45;590c&#45;413e&#45;8883&#45;5eca41b64014</title>
<path fill="#f7f7ff" stroke="#4a4a8a" stroke-width="1.2" d="M290,-460C290,-460 201,-460 201,-460 195,-460 189,-454 189,-448 189,-448 189,-434 189,-434 189,-428 195,-422 201,-422 201,-422 290,-422 290,-422 296,-422 302,-428 302,-434 302,-434 302,-448 302,-448 302,-454 296,-460 290,-460"/>
<text text-anchor="start" x="199.5" y="-447" font-family="Helvetica,sans-Serif" font-weight="bold" font-size="10.00">sequence_phase</text>
<text text-anchor="start" x="199.5" y="-431" font-family="Helvetica,sans-Serif" font-size="10.00">Type: Sequence</text>
</g>
<!-- entry&#45;&gt;e68a2238&#45;590c&#45;413e&#45;8883&#45;5eca41b64014 -->
<g id="edge7" class="edge">
<title>entry&#45;&gt;e68a2238&#45;590c&#45;413e&#45;8883&#45;5eca41b64014</title>
<path fill="none" stroke="#333333" d="M245.5,-499.63C245.5,-492.3 245.5,-479.8 245.5,-468.31"/>
<polygon fill="#333333" stroke="#333333" points="248.3,-468.21 245.5,-460.21 242.7,-468.21 248.3,-468.21"/>
<text text-anchor="start" x="245.5" y="-477.8" font-family="Helvetica,sans-Serif" font-size="9.00"> &#160;&#160;&#160;&#160;&#160;</text>
</g>
<!-- a7dbdb88&#45;422f&#45;4403&#45;8c26&#45;7ebf99ecac40 -->
<g id="node4" class="node">
<title>a7dbdb88&#45;422f&#45;4403&#45;8c26&#45;7ebf99ecac40</title>
<path fill="#f7f7ff" stroke="#4a4a8a" stroke-width="1.2" d="M308.5,-382C308.5,-382 182.5,-382 182.5,-382 176.5,-382 170.5,-376 170.5,-370 170.5,-370 170.5,-356 170.5,-356 170.5,-350 176.5,-344 182.5,-344 182.5,-344 308.5,-344 308.5,-344 314.5,-344 320.5,-350 320.5,-356 320.5,-356 320.5,-370 320.5,-370 320.5,-376 314.5,-382 308.5,-382"/>
<text text-anchor="start" x="185" y="-369" font-family="Helvetica,sans-Serif" font-weight="bold" font-size="10.00">concurrentseq_phase</text>
<text text-anchor="start" x="180.5" y="-353" font-family="Helvetica,sans-Serif" font-size="10.00">Type: ConcurrentSequence</text>
</g>
<!-- e68a2238&#45;590c&#45;413e&#45;8883&#45;5eca41b64014&#45;&gt;a7dbdb88&#45;422f&#45;4403&#45;8c26&#45;7ebf99ecac40 -->
<g id="edge1" class="edge">
<title>e68a2238&#45;590c&#45;413e&#45;8883&#45;5eca41b64014&#45;&gt;a7dbdb88&#45;422f&#45;4403&#45;8c26&#45;7ebf99ecac40</title>
<path fill="none" stroke="#333333" d="M245.5,-421.99C245.5,-412.5 245.5,-400.68 245.5,-390.2"/>
<polygon fill="#333333" stroke="#333333" points="248.3,-390.15 245.5,-382.15 242.7,-390.15 248.3,-390.15"/>
<text text-anchor="start" x="245.5" y="-399.8" font-family="Helvetica,sans-Serif" font-size="9.00"> &#160;&#160;SUCCEED &#160;&#160;</text>
</g>
<!-- 0e47c5d7&#45;1382&#45;4f2a&#45;a29b&#45;5c874a2b733f -->
<g id="node5" class="node">
<title>0e47c5d7&#45;1382&#45;4f2a&#45;a29b&#45;5c874a2b733f</title>
<path fill="#f7f7ff" stroke="#4a4a8a" stroke-width="1.2" d="M293.5,-304C293.5,-304 197.5,-304 197.5,-304 191.5,-304 185.5,-298 185.5,-292 185.5,-292 185.5,-278 185.5,-278 185.5,-272 191.5,-266 197.5,-266 197.5,-266 293.5,-266 293.5,-266 299.5,-266 305.5,-272 305.5,-278 305.5,-278 305.5,-292 305.5,-292 305.5,-298 299.5,-304 293.5,-304"/>
<text text-anchor="start" x="195.5" y="-291" font-family="Helvetica,sans-Serif" font-weight="bold" font-size="10.00">concurrent_phase</text>
<text text-anchor="start" x="195.5" y="-275" font-family="Helvetica,sans-Serif" font-size="10.00">Type: Concurrent</text>
</g>
<!-- a7dbdb88&#45;422f&#45;4403&#45;8c26&#45;7ebf99ecac40&#45;&gt;0e47c5d7&#45;1382&#45;4f2a&#45;a29b&#45;5c874a2b733f -->
<g id="edge2" class="edge">
<title>a7dbdb88&#45;422f&#45;4403&#45;8c26&#45;7ebf99ecac40&#45;&gt;0e47c5d7&#45;1382&#45;4f2a&#45;a29b&#45;5c874a2b733f</title>
<path fill="none" stroke="#333333" d="M245.5,-343.99C245.5,-334.5 245.5,-322.68 245.5,-312.2"/>
<polygon fill="#333333" stroke="#333333" points="248.3,-312.15 245.5,-304.15 242.7,-312.15 248.3,-312.15"/>
<text text-anchor="start" x="245.5" y="-321.8" font-family="Helvetica,sans-Serif" font-size="9.00"> &#160;&#160;SUCCEED &#160;&#160;</text>
</g>
<!-- 48e02111&#45;77d0&#45;45c4&#45;bb95&#45;a435a0ff08b3 -->
<g id="node6" class="node">
<title>48e02111&#45;77d0&#45;45c4&#45;bb95&#45;a435a0ff08b3</title>
<path fill="#f7f7ff" stroke="#4a4a8a" stroke-width="1.2" d="M282,-226C282,-226 209,-226 209,-226 203,-226 197,-220 197,-214 197,-214 197,-200 197,-200 197,-194 203,-188 209,-188 209,-188 282,-188 282,-188 288,-188 294,-194 294,-200 294,-200 294,-214 294,-214 294,-220 288,-226 282,-226"/>
<text text-anchor="start" x="207.5" y="-213" font-family="Helvetica,sans-Serif" font-weight="bold" font-size="10.00">repeat_phase</text>
<text text-anchor="start" x="207.5" y="-197" font-family="Helvetica,sans-Serif" font-size="10.00">Type: Repeat</text>
</g>
<!-- 0e47c5d7&#45;1382&#45;4f2a&#45;a29b&#45;5c874a2b733f&#45;&gt;48e02111&#45;77d0&#45;45c4&#45;bb95&#45;a435a0ff08b3 -->
<g id="edge3" class="edge">
<title>0e47c5d7&#45;1382&#45;4f2a&#45;a29b&#45;5c874a2b733f&#45;&gt;48e02111&#45;77d0&#45;45c4&#45;bb95&#45;a435a0ff08b3</title>
<path fill="none" stroke="#333333" d="M245.5,-265.99C245.5,-256.5 245.5,-244.68 245.5,-234.2"/>
<polygon fill="#333333" stroke="#333333" points="248.3,-234.15 245.5,-226.15 242.7,-234.15 248.3,-234.15"/>
<text text-anchor="start" x="245.5" y="-243.8" font-family="Helvetica,sans-Serif" font-size="9.00"> &#160;&#160;SUCCEED &#160;&#160;</text>
</g>
<!-- 065ed524&#45;a8f4&#45;46a8&#45;bc3e&#45;81664d82b8b0 -->
<g id="node7" class="node">
<title>065ed524&#45;a8f4&#45;46a8&#45;bc3e&#45;81664d82b8b0</title>
<path fill="#f7f7ff" stroke="#4a4a8a" stroke-width="1.2" d="M286,-148C286,-148 205,-148 205,-148 199,-148 193,-142 193,-136 193,-136 193,-122 193,-122 193,-116 199,-110 205,-110 205,-110 286,-110 286,-110 292,-110 298,-116 298,-122 298,-122 298,-136 298,-136 298,-142 292,-148 286,-148"/>
<text text-anchor="start" x="203.5" y="-135" font-family="Helvetica,sans-Serif" font-weight="bold" font-size="10.00">fallback_phase</text>
<text text-anchor="start" x="203.5" y="-119" font-family="Helvetica,sans-Serif" font-size="10.00">Type: Fallback</text>
</g>
<!-- 48e02111&#45;77d0&#45;45c4&#45;bb95&#45;a435a0ff08b3&#45;&gt;065ed524&#45;a8f4&#45;46a8&#45;bc3e&#45;81664d82b8b0 -->
<g id="edge4" class="edge">
<title>48e02111&#45;77d0&#45;45c4&#45;bb95&#45;a435a0ff08b3&#45;&gt;065ed524&#45;a8f4&#45;46a8&#45;bc3e&#45;81664d82b8b0</title>
<path fill="none" stroke="#333333" d="M245.5,-187.99C245.5,-178.5 245.5,-166.68 245.5,-156.2"/>
<polygon fill="#333333" stroke="#333333" points="248.3,-156.15 245.5,-148.15 242.7,-156.15 248.3,-156.15"/>
<text text-anchor="start" x="245.5" y="-165.8" font-family="Helvetica,sans-Serif" font-size="9.00"> &#160;&#160;SUCCEED &#160;&#160;</text>
</g>
<!-- 065ed524&#45;a8f4&#45;46a8&#45;bc3e&#45;81664d82b8b0&#45;&gt;065ed524&#45;a8f4&#45;46a8&#45;bc3e&#45;81664d82b8b0 -->
<g id="edge5" class="edge">
<title>065ed524&#45;a8f4&#45;46a8&#45;bc3e&#45;81664d82b8b0&#45;&gt;065ed524&#45;a8f4&#45;46a8&#45;bc3e&#45;81664d82b8b0</title>
<path fill="none" stroke="#333333" d="M298.24,-135.91C324.54,-136.87 348,-134.57 348,-129 348,-124.02 329.23,-121.65 306.44,-121.89"/>
<polygon fill="#333333" stroke="#333333" points="306.17,-119.1 298.24,-122.09 306.3,-124.7 306.17,-119.1"/>
<text text-anchor="start" x="348" y="-126.8" font-family="Helvetica,sans-Serif" font-size="9.00"> &#160;&#160;SUCCEED → &#160;SUCCEED &#160;&#160;</text>
</g>
<!-- 3494b600&#45;ad46&#45;47b5&#45;9d04&#45;23a4266b5018 -->
<g id="node8" class="node">
<title>3494b600&#45;ad46&#45;47b5&#45;9d04&#45;23a4266b5018</title>
<path fill="#ff6b6b" stroke="#b33939" stroke-width="1.2" d="M292.67,-70C292.67,-70 198.33,-70 198.33,-70 195.17,-70 192,-66.83 192,-63.67 192,-63.67 192,-57.33 192,-57.33 192,-54.17 195.17,-51 198.33,-51 198.33,-51 292.67,-51 292.67,-51 295.83,-51 299,-54.17 299,-57.33 299,-57.33 299,-63.67 299,-63.67 299,-66.83 295.83,-70 292.67,-70"/>
<text text-anchor="middle" x="245.5" y="-58" font-family="Helvetica,sans-Serif" font-size="10.00">unknown outcome</text>
</g>
<!-- 065ed524&#45;a8f4&#45;46a8&#45;bc3e&#45;81664d82b8b0&#45;&gt;3494b600&#45;ad46&#45;47b5&#45;9d04&#45;23a4266b5018 -->
<g id="edge6" class="edge">
<title>065ed524&#45;a8f4&#45;46a8&#45;bc3e&#45;81664d82b8b0&#45;&gt;3494b600&#45;ad46&#45;47b5&#45;9d04&#45;23a4266b5018</title>
<path fill="none" stroke="#333333" d="M245.5,-109.83C245.5,-99.94 245.5,-87.78 245.5,-78.14"/>
<polygon fill="#333333" stroke="#333333" points="248.3,-78.13 245.5,-70.13 242.7,-78.13 248.3,-78.13"/>
<text text-anchor="start" x="245.5" y="-87.8" font-family="Helvetica,sans-Serif" font-size="9.00"> &#160;&#160;CANCEL &#160;&#160;</text>
</g>
</g>
</svg>
