<?xml version="1.0" encoding="UTF-8" standalone="no"?>
<!DOCTYPE svg PUBLIC "-//W3C//DTD SVG 1.1//EN"
 "http://www.w3.org/Graphics/SVG/1.1/DTD/svg11.dtd">
<!-- Generated by graphviz version 2.43.0 (0)
 -->
<!-- Title: StateMachine Pages: 1 -->
<svg width="654pt" height="1014pt"
 viewBox="0.00 0.00 654.00 1014.00" xmlns="http://www.w3.org/2000/svg" xmlns:xlink="http://www.w3.org/1999/xlink">
<g id="graph0" class="graph" transform="scale(1 1) rotate(0) translate(4 1010)">
<title>StateMachine</title>
<polygon fill="white" stroke="transparent" points="-4,4 -4,-1010 650,-1010 650,4 -4,4"/>
<!-- c8c68dc8&#45;7b5e&#45;4a43&#45;9d16&#45;ca3198b13162 -->
<g id="node1" class="node">
<title>c8c68dc8&#45;7b5e&#45;4a43&#45;9d16&#45;ca3198b13162</title>
<path fill="#f7f7ff" stroke="#4a4a8a" stroke-width="1.2" d="M139,-456C139,-456 12,-456 12,-456 6,-456 0,-450 0,-444 0,-444 0,-430 0,-430 0,-424 6,-418 12,-418 12,-418 139,-418 139,-418 145,-418 151,-424 151,-430 151,-430 151,-444 151,-444 151,-450 145,-456 139,-456"/>
<text text-anchor="start" x="53" y="-443" font-family="Helvetica,sans-Serif" font-weight="bold" font-size="10.00">root_sm</text>
<text text-anchor="start" x="10.5" y="-427" font-family="Helvetica,sans-Serif" font-size="10.00">Type: TickingStateMachine</text>
</g>
<!-- 055405d8&#45;84b2&#45;4b7c&#45;9248&#45;f755cd64ef99 -->
<g id="node2" class="node">
<title>055405d8&#45;84b2&#45;4b7c&#45;9248&#45;f755cd64ef99</title>
<path fill="#f7f7ff" stroke="#4a4a8a" stroke-width="1.2" d="M299.5,-874C299.5,-874 210.5,-874 210.5,-874 204.5,-874 198.5,-868 198.5,-862 198.5,-862 198.5,-848 198.5,-848 198.5,-842 204.5,-836 210.5,-836 210.5,-836 299.5,-836 299.5,-836 305.5,-836 311.5,-842 311.5,-848 311.5,-848 311.5,-862 311.5,-862 311.5,-868 305.5,-874 299.5,-874"/>
<text text-anchor="start" x="209" y="-861" font-family="Helvetica,sans-Serif" font-weight="bold" font-size="10.00">sequence_phase</text>
<text text-anchor="start" x="209" y="-845" font-family="Helvetica,sans-Serif" font-size="10.00">Type: Sequence</text>
</g>
<!-- c8c68dc8&#45;7b5e&#45;4a43&#45;9d16&#45;ca3198b13162&#45;&gt;055405d8&#45;84b2&#45;4b7c&#45;9248&#45;f755cd64ef99 -->
<g id="edge1" class="edge">
<title>c8c68dc8&#45;7b5e&#45;4a43&#45;9d16&#45;ca3198b13162&#45;&gt;055405d8&#45;84b2&#45;4b7c&#45;9248&#45;f755cd64ef99</title>
<path fill="none" stroke="#333333" d="M84.59,-456.05C113.18,-523.37 209.52,-750.25 242.68,-828.34"/>
<polygon fill="#333333" stroke="#333333" points="240.16,-829.57 245.86,-835.84 245.31,-827.38 240.16,-829.57"/>
</g>
<!-- 4c505ed9&#45;2f83&#45;4d16&#45;9cef&#45;1ec7551f7d07 -->
<g id="node7" class="node">
<title>4c505ed9&#45;2f83&#45;4d16&#45;9cef&#45;1ec7551f7d07</title>
<path fill="#f7f7ff" stroke="#4a4a8a" stroke-width="1.2" d="M318,-610C318,-610 192,-610 192,-610 186,-610 180,-604 180,-598 180,-598 180,-584 180,-584 180,-578 186,-572 192,-572 192,-572 318,-572 318,-572 324,-572 330,-578 330,-584 330,-584 330,-598 330,-598 330,-604 324,-610 318,-610"/>
<text text-anchor="start" x="194.5" y="-597" font-family="Helvetica,sans-Serif" font-weight="bold" font-size="10.00">concurrentseq_phase</text>
<text text-anchor="start" x="190" y="-581" font-family="Helvetica,sans-Serif" font-size="10.00">Type: ConcurrentSequence</text>
</g>
<!-- c8c68dc8&#45;7b5e&#45;4a43&#45;9d16&#45;ca3198b13162&#45;&gt;4c505ed9&#45;2f83&#45;4d16&#45;9cef&#45;1ec7551f7d07 -->
<g id="edge6" class="edge">
<title>c8c68dc8&#45;7b5e&#45;4a43&#45;9d16&#45;ca3198b13162&#45;&gt;4c505ed9&#45;2f83&#45;4d16&#45;9cef&#45;1ec7551f7d07</title>
<path fill="none" stroke="#333333" d="M98.62,-456.19C130.73,-484.05 190.26,-535.7 225.58,-566.34"/>
<polygon fill="#333333" stroke="#333333" points="224,-568.68 231.88,-571.81 227.67,-564.45 224,-568.68"/>
</g>
<!-- fe414ec8&#45;6421&#45;4fc4&#45;b699&#45;8b960de11219 -->
<g id="node13" class="node">
<title>fe414ec8&#45;6421&#45;4fc4&#45;b699&#45;8b960de11219</title>
<path fill="#f7f7ff" stroke="#4a4a8a" stroke-width="1.2" d="M303,-456C303,-456 207,-456 207,-456 201,-456 195,-450 195,-444 195,-444 195,-430 195,-430 195,-424 201,-418 207,-418 207,-418 303,-418 303,-418 309,-418 315,-424 315,-430 315,-430 315,-444 315,-444 315,-450 309,-456 303,-456"/>
<text text-anchor="start" x="205" y="-443" font-family="Helvetica,sans-Serif" font-weight="bold" font-size="10.00">concurrent_phase</text>
<text text-anchor="start" x="205" y="-427" font-family="Helvetica,sans-Serif" font-size="10.00">Type: Concurrent</text>
</g>
<!-- c8c68dc8&#45;7b5e&#45;4a43&#45;9d16&#45;ca3198b13162&#45;&gt;fe414ec8&#45;6421&#45;4fc4&#45;b699&#45;8b960de11219 -->
<g id="edge12" class="edge">
<title>c8c68dc8&#45;7b5e&#45;4a43&#45;9d16&#45;ca3198b13162&#45;&gt;fe414ec8&#45;6421&#45;4fc4&#45;b699&#45;8b960de11219</title>
<path fill="none" stroke="#333333" d="M151,-437C162.76,-437 174.86,-437 186.45,-437"/>
<polygon fill="#333333" stroke="#333333" points="186.78,-439.8 194.78,-437 186.78,-434.2 186.78,-439.8"/>
</g>
<!-- 9f6afc74&#45;7a73&#45;45c5&#45;be58&#45;0500817f67a6 -->
<g id="node18" class="node">
<title>9f6afc74&#45;7a73&#45;45c5&#45;be58&#45;0500817f67a6</title>
<path fill="#f7f7ff" stroke="#4a4a8a" stroke-width="1.2" d="M291.5,-346C291.5,-346 218.5,-346 218.5,-346 212.5,-346 206.5,-340 206.5,-334 206.5,-334 206.5,-320 206.5,-320 206.5,-314 212.5,-308 218.5,-308 218.5,-308 291.5,-308 291.5,-308 297.5,-308 303.5,-314 303.5,-320 303.5,-320 303.5,-334 303.5,-334 303.5,-340 297.5,-346 291.5,-346"/>
<text text-anchor="start" x="217" y="-333" font-family="Helvetica,sans-Serif" font-weight="bold" font-size="10.00">repeat_phase</text>
<text text-anchor="start" x="217" y="-317" font-family="Helvetica,sans-Serif" font-size="10.00">Type: Repeat</text>
</g>
<!-- c8c68dc8&#45;7b5e&#45;4a43&#45;9d16&#45;ca3198b13162&#45;&gt;9f6afc74&#45;7a73&#45;45c5&#45;be58&#45;0500817f67a6 -->
<g id="edge17" class="edge">
<title>c8c68dc8&#45;7b5e&#45;4a43&#45;9d16&#45;ca3198b13162&#45;&gt;9f6afc74&#45;7a73&#45;45c5&#45;be58&#45;0500817f67a6</title>
<path fill="none" stroke="#333333" d="M107.42,-417.84C137.61,-399.13 183.63,-370.61 216.03,-350.53"/>
<polygon fill="#333333" stroke="#333333" points="217.81,-352.72 223.14,-346.13 214.86,-347.96 217.81,-352.72"/>
</g>
<!-- 2bdb671d&#45;aa3a&#45;4a7b&#45;afa1&#45;de84a01dd301 -->
<g id="node22" class="node">
<title>2bdb671d&#45;aa3a&#45;4a7b&#45;afa1&#45;de84a01dd301</title>
<path fill="#f7f7ff" stroke="#4a4a8a" stroke-width="1.2" d="M295.5,-170C295.5,-170 214.5,-170 214.5,-170 208.5,-170 202.5,-164 202.5,-158 202.5,-158 202.5,-144 202.5,-144 202.5,-138 208.5,-132 214.5,-132 214.5,-132 295.5,-132 295.5,-132 301.5,-132 307.5,-138 307.5,-144 307.5,-144 307.5,-158 307.5,-158 307.5,-164 301.5,-170 295.5,-170"/>
<text text-anchor="start" x="213" y="-157" font-family="Helvetica,sans-Serif" font-weight="bold" font-size="10.00">fallback_phase</text>
<text text-anchor="start" x="213" y="-141" font-family="Helvetica,sans-Serif" font-size="10.00">Type: Fallback</text>
</g>
<!-- c8c68dc8&#45;7b5e&#45;4a43&#45;9d16&#45;ca3198b13162&#45;&gt;2bdb671d&#45;aa3a&#45;4a7b&#45;afa1&#45;de84a01dd301 -->
<g id="edge21" class="edge">
<title>c8c68dc8&#45;7b5e&#45;4a43&#45;9d16&#45;ca3198b13162&#45;&gt;2bdb671d&#45;aa3a&#45;4a7b&#45;afa1&#45;de84a01dd301</title>
<path fill="none" stroke="#333333" d="M88.42,-417.79C119.43,-367.83 202.64,-233.75 237.88,-176.97"/>
<polygon fill="#333333" stroke="#333333" points="240.29,-178.4 242.13,-170.13 235.53,-175.45 240.29,-178.4"/>
</g>
<!-- 67d7276f&#45;b359&#45;4af5&#45;82d8&#45;486a87640b28 -->
<g id="node3" class="node">
<title>67d7276f&#45;b359&#45;4af5&#45;82d8&#45;486a87640b28</title>
<path fill="#f7f7ff" stroke="#4a4a8a" stroke-width="1.2" d="M471.5,-1006C471.5,-1006 402.5,-1006 402.5,-1006 396.5,-1006 390.5,-1000 390.5,-994 390.5,-994 390.5,-980 390.5,-980 390.5,-974 396.5,-968 402.5,-968 402.5,-968 471.5,-968 471.5,-968 477.5,-968 483.5,-974 483.5,-980 483.5,-980 483.5,-994 483.5,-994 483.5,-1000 477.5,-1006 471.5,-1006"/>
<text text-anchor="start" x="406" y="-993" font-family="Helvetica,sans-Serif" font-weight="bold" font-size="10.00">message_1</text>
<text text-anchor="start" x="401" y="-977" font-family="Helvetica,sans-Serif" font-size="10.00">Type: Message</text>
</g>
<!-- 055405d8&#45;84b2&#45;4b7c&#45;9248&#45;f755cd64ef99&#45;&gt;67d7276f&#45;b359&#45;4af5&#45;82d8&#45;486a87640b28 -->
<g id="edge2" class="edge">
<title>055405d8&#45;84b2&#45;4b7c&#45;9248&#45;f755cd64ef99&#45;&gt;67d7276f&#45;b359&#45;4af5&#45;82d8&#45;486a87640b28</title>
<path fill="none" stroke="#333333" d="M275.98,-874.06C296.09,-892.75 328.41,-921.48 359,-943 369.43,-950.34 381.18,-957.54 392.29,-963.92"/>
<polygon fill="#333333" stroke="#333333" points="391.14,-966.48 399.49,-967.98 393.9,-961.61 391.14,-966.48"/>
</g>
<!-- 87f76f21&#45;9cbf&#45;4b41&#45;a95a&#45;8bdf8acf59fa -->
<g id="node4" class="node">
<title>87f76f21&#45;9cbf&#45;4b41&#45;a95a&#45;8bdf8acf59fa</title>
<path fill="#f7f7ff" stroke="#4a4a8a" stroke-width="1.2" d="M503,-918C503,-918 371,-918 371,-918 365,-918 359,-912 359,-906 359,-906 359,-892 359,-892 359,-886 365,-880 371,-880 371,-880 503,-880 503,-880 509,-880 515,-886 515,-892 515,-892 515,-906 515,-906 515,-912 509,-918 503,-918"/>
<text text-anchor="start" x="396.5" y="-905" font-family="Helvetica,sans-Serif" font-weight="bold" font-size="10.00">seq_counter_1</text>
<text text-anchor="start" x="369" y="-889" font-family="Helvetica,sans-Serif" font-size="10.00">Type: CountDownWithDelay</text>
</g>
<!-- 055405d8&#45;84b2&#45;4b7c&#45;9248&#45;f755cd64ef99&#45;&gt;87f76f21&#45;9cbf&#45;4b41&#45;a95a&#45;8bdf8acf59fa -->
<g id="edge3" class="edge">
<title>055405d8&#45;84b2&#45;4b7c&#45;9248&#45;f755cd64ef99&#45;&gt;87f76f21&#45;9cbf&#45;4b41&#45;a95a&#45;8bdf8acf59fa</title>
<path fill="none" stroke="#333333" d="M311.97,-868.68C324.39,-871.72 337.83,-875 351.12,-878.25"/>
<polygon fill="#333333" stroke="#333333" points="350.48,-880.98 358.91,-880.16 351.81,-875.54 350.48,-880.98"/>
</g>
<!-- 1b6fbcea&#45;b4dc&#45;465a&#45;9fec&#45;123597877d96 -->
<g id="node6" class="node">
<title>1b6fbcea&#45;b4dc&#45;465a&#45;9fec&#45;123597877d96</title>
<path fill="#f7f7ff" stroke="#4a4a8a" stroke-width="1.2" d="M471.5,-830C471.5,-830 402.5,-830 402.5,-830 396.5,-830 390.5,-824 390.5,-818 390.5,-818 390.5,-804 390.5,-804 390.5,-798 396.5,-792 402.5,-792 402.5,-792 471.5,-792 471.5,-792 477.5,-792 483.5,-798 483.5,-804 483.5,-804 483.5,-818 483.5,-818 483.5,-824 477.5,-830 471.5,-830"/>
<text text-anchor="start" x="406" y="-817" font-family="Helvetica,sans-Serif" font-weight="bold" font-size="10.00">message_3</text>
<text text-anchor="start" x="401" y="-801" font-family="Helvetica,sans-Serif" font-size="10.00">Type: Message</text>
</g>
<!-- 055405d8&#45;84b2&#45;4b7c&#45;9248&#45;f755cd64ef99&#45;&gt;1b6fbcea&#45;b4dc&#45;465a&#45;9fec&#45;123597877d96 -->
<g id="edge5" class="edge">
<title>055405d8&#45;84b2&#45;4b7c&#45;9248&#45;f755cd64ef99&#45;&gt;1b6fbcea&#45;b4dc&#45;465a&#45;9fec&#45;123597877d96</title>
<path fill="none" stroke="#333333" d="M311.97,-841.32C334.39,-835.84 360.13,-829.55 382.32,-824.12"/>
<polygon fill="#333333" stroke="#333333" points="383.22,-826.78 390.32,-822.17 381.89,-821.35 383.22,-826.78"/>
</g>
<!-- 98f24f48&#45;03c0&#45;4fb6&#45;80c0&#45;62bebd1ad920 -->
<g id="node5" class="node">
<title>98f24f48&#45;03c0&#45;4fb6&#45;80c0&#45;62bebd1ad920</title>
<path fill="#f7f7ff" stroke="#4a4a8a" stroke-width="1.2" d="M629.5,-918C629.5,-918 560.5,-918 560.5,-918 554.5,-918 548.5,-912 548.5,-906 548.5,-906 548.5,-892 548.5,-892 548.5,-886 554.5,-880 560.5,-880 560.5,-880 629.5,-880 629.5,-880 635.5,-880 641.5,-886 641.5,-892 641.5,-892 641.5,-906 641.5,-906 641.5,-912 635.5,-918 629.5,-918"/>
<text text-anchor="start" x="564" y="-905" font-family="Helvetica,sans-Serif" font-weight="bold" font-size="10.00">message_2</text>
<text text-anchor="start" x="559" y="-889" font-family="Helvetica,sans-Serif" font-size="10.00">Type: Message</text>
</g>
<!-- 87f76f21&#45;9cbf&#45;4b41&#45;a95a&#45;8bdf8acf59fa&#45;&gt;98f24f48&#45;03c0&#45;4fb6&#45;80c0&#45;62bebd1ad920 -->
<g id="edge4" class="edge">
<title>87f76f21&#45;9cbf&#45;4b41&#45;a95a&#45;8bdf8acf59fa&#45;&gt;98f24f48&#45;03c0&#45;4fb6&#45;80c0&#45;62bebd1ad920</title>
<path fill="none" stroke="#333333" d="M515.09,-899C523.52,-899 531.96,-899 540.03,-899"/>
<polygon fill="#333333" stroke="#333333" points="540.28,-901.8 548.28,-899 540.28,-896.2 540.28,-901.8"/>
</g>
<!-- 1b7e83cf&#45;f089&#45;4e5a&#45;9188&#45;0347320c712b -->
<g id="node8" class="node">
<title>1b7e83cf&#45;f089&#45;4e5a&#45;9188&#45;0347320c712b</title>
<path fill="#f7f7ff" stroke="#4a4a8a" stroke-width="1.2" d="M471.5,-742C471.5,-742 402.5,-742 402.5,-742 396.5,-742 390.5,-736 390.5,-730 390.5,-730 390.5,-716 390.5,-716 390.5,-710 396.5,-704 402.5,-704 402.5,-704 471.5,-704 471.5,-704 477.5,-704 483.5,-710 483.5,-716 483.5,-716 483.5,-730 483.5,-730 483.5,-736 477.5,-742 471.5,-742"/>
<text text-anchor="start" x="406" y="-729" font-family="Helvetica,sans-Serif" font-weight="bold" font-size="10.00">message_4</text>
<text text-anchor="start" x="401" y="-713" font-family="Helvetica,sans-Serif" font-size="10.00">Type: Message</text>
</g>
<!-- 4c505ed9&#45;2f83&#45;4d16&#45;9cef&#45;1ec7551f7d07&#45;&gt;1b7e83cf&#45;f089&#45;4e5a&#45;9188&#45;0347320c712b -->
<g id="edge7" class="edge">
<title>4c505ed9&#45;2f83&#45;4d16&#45;9cef&#45;1ec7551f7d07&#45;&gt;1b7e83cf&#45;f089&#45;4e5a&#45;9188&#45;0347320c712b</title>
<path fill="none" stroke="#333333" d="M275.98,-610.06C296.09,-628.75 328.41,-657.48 359,-679 369.43,-686.34 381.18,-693.54 392.29,-699.92"/>
<polygon fill="#333333" stroke="#333333" points="391.14,-702.48 399.49,-703.98 393.9,-697.61 391.14,-702.48"/>
</g>
<!-- 7ba8ea02&#45;62aa&#45;4b1c&#45;9f23&#45;32af35b32f42 -->
<g id="node9" class="node">
<title>7ba8ea02&#45;62aa&#45;4b1c&#45;9f23&#45;32af35b32f42</title>
<path fill="#f7f7ff" stroke="#4a4a8a" stroke-width="1.2" d="M503,-654C503,-654 371,-654 371,-654 365,-654 359,-648 359,-642 359,-642 359,-628 359,-628 359,-622 365,-616 371,-616 371,-616 503,-616 503,-616 509,-616 515,-622 515,-628 515,-628 515,-642 515,-642 515,-648 509,-654 503,-654"/>
<text text-anchor="start" x="375" y="-641" font-family="Helvetica,sans-Serif" font-weight="bold" font-size="10.00">Concurrent_Counter_1</text>
<text text-anchor="start" x="369" y="-625" font-family="Helvetica,sans-Serif" font-size="10.00">Type: CountDownWithDelay</text>
</g>
<!-- 4c505ed9&#45;2f83&#45;4d16&#45;9cef&#45;1ec7551f7d07&#45;&gt;7ba8ea02&#45;62aa&#45;4b1c&#45;9f23&#45;32af35b32f42 -->
<g id="edge8" class="edge">
<title>4c505ed9&#45;2f83&#45;4d16&#45;9cef&#45;1ec7551f7d07&#45;&gt;7ba8ea02&#45;62aa&#45;4b1c&#45;9f23&#45;32af35b32f42</title>
<path fill="none" stroke="#333333" d="M330.25,-609.15C337,-610.8 343.88,-612.48 350.71,-614.15"/>
<polygon fill="#333333" stroke="#333333" points="350.28,-616.93 358.72,-616.11 351.61,-611.49 350.28,-616.93"/>
</g>
<!-- 987fe0ae&#45;4179&#45;4757&#45;8b09&#45;0f9a87777f2f -->
<g id="node11" class="node">
<title>987fe0ae&#45;4179&#45;4757&#45;8b09&#45;0f9a87777f2f</title>
<path fill="#f7f7ff" stroke="#4a4a8a" stroke-width="1.2" d="M503,-566C503,-566 371,-566 371,-566 365,-566 359,-560 359,-554 359,-554 359,-540 359,-540 359,-534 365,-528 371,-528 371,-528 503,-528 503,-528 509,-528 515,-534 515,-540 515,-540 515,-554 515,-554 515,-560 509,-566 503,-566"/>
<text text-anchor="start" x="375" y="-553" font-family="Helvetica,sans-Serif" font-weight="bold" font-size="10.00">Concurrent_Counter_2</text>
<text text-anchor="start" x="369" y="-537" font-family="Helvetica,sans-Serif" font-size="10.00">Type: CountDownWithDelay</text>
</g>
<!-- 4c505ed9&#45;2f83&#45;4d16&#45;9cef&#45;1ec7551f7d07&#45;&gt;987fe0ae&#45;4179&#45;4757&#45;8b09&#45;0f9a87777f2f -->
<g id="edge10" class="edge">
<title>4c505ed9&#45;2f83&#45;4d16&#45;9cef&#45;1ec7551f7d07&#45;&gt;987fe0ae&#45;4179&#45;4757&#45;8b09&#45;0f9a87777f2f</title>
<path fill="none" stroke="#333333" d="M330.25,-572.85C337,-571.2 343.88,-569.52 350.71,-567.85"/>
<polygon fill="#333333" stroke="#333333" points="351.61,-570.51 358.72,-565.89 350.28,-565.07 351.61,-570.51"/>
</g>
<!-- ae075543&#45;7142&#45;4938&#45;80d2&#45;d9aaf557e1f3 -->
<g id="node10" class="node">
<title>ae075543&#45;7142&#45;4938&#45;80d2&#45;d9aaf557e1f3</title>
<path fill="#f7f7ff" stroke="#4a4a8a" stroke-width="1.2" d="M629.5,-654C629.5,-654 560.5,-654 560.5,-654 554.5,-654 548.5,-648 548.5,-642 548.5,-642 548.5,-628 548.5,-628 548.5,-622 554.5,-616 560.5,-616 560.5,-616 629.5,-616 629.5,-616 635.5,-616 641.5,-622 641.5,-628 641.5,-628 641.5,-642 641.5,-642 641.5,-648 635.5,-654 629.5,-654"/>
<text text-anchor="start" x="564" y="-641" font-family="Helvetica,sans-Serif" font-weight="bold" font-size="10.00">message_5</text>
<text text-anchor="start" x="559" y="-625" font-family="Helvetica,sans-Serif" font-size="10.00">Type: Message</text>
</g>
<!-- 7ba8ea02&#45;62aa&#45;4b1c&#45;9f23&#45;32af35b32f42&#45;&gt;ae075543&#45;7142&#45;4938&#45;80d2&#45;d9aaf557e1f3 -->
<g id="edge9" class="edge">
<title>7ba8ea02&#45;62aa&#45;4b1c&#45;9f23&#45;32af35b32f42&#45;&gt;ae075543&#45;7142&#45;4938&#45;80d2&#45;d9aaf557e1f3</title>
<path fill="none" stroke="#333333" d="M515.09,-635C523.52,-635 531.96,-635 540.03,-635"/>
<polygon fill="#333333" stroke="#333333" points="540.28,-637.8 548.28,-635 540.28,-632.2 540.28,-637.8"/>
</g>
<!-- 45fead03&#45;c774&#45;4e16&#45;a86d&#45;24ad629625dd -->
<g id="node12" class="node">
<title>45fead03&#45;c774&#45;4e16&#45;a86d&#45;24ad629625dd</title>
<path fill="#f7f7ff" stroke="#4a4a8a" stroke-width="1.2" d="M629.5,-566C629.5,-566 560.5,-566 560.5,-566 554.5,-566 548.5,-560 548.5,-554 548.5,-554 548.5,-540 548.5,-540 548.5,-534 554.5,-528 560.5,-528 560.5,-528 629.5,-528 629.5,-528 635.5,-528 641.5,-534 641.5,-540 641.5,-540 641.5,-554 641.5,-554 641.5,-560 635.5,-566 629.5,-566"/>
<text text-anchor="start" x="564" y="-553" font-family="Helvetica,sans-Serif" font-weight="bold" font-size="10.00">message_6</text>
<text text-anchor="start" x="559" y="-537" font-family="Helvetica,sans-Serif" font-size="10.00">Type: Message</text>
</g>
<!-- 987fe0ae&#45;4179&#45;4757&#45;8b09&#45;0f9a87777f2f&#45;&gt;45fead03&#45;c774&#45;4e16&#45;a86d&#45;24ad629625dd -->
<g id="edge11" class="edge">
<title>987fe0ae&#45;4179&#45;4757&#45;8b09&#45;0f9a87777f2f&#45;&gt;45fead03&#45;c774&#45;4e16&#45;a86d&#45;24ad629625dd</title>
<path fill="none" stroke="#333333" d="M515.09,-547C523.52,-547 531.96,-547 540.03,-547"/>
<polygon fill="#333333" stroke="#333333" points="540.28,-549.8 548.28,-547 540.28,-544.2 540.28,-549.8"/>
</g>
<!-- 5a966b70&#45;f5d9&#45;4e07&#45;9f2c&#45;a61f0b9d21c7 -->
<g id="node14" class="node">
<title>5a966b70&#45;f5d9&#45;4e07&#45;9f2c&#45;a61f0b9d21c7</title>
<path fill="#f7f7ff" stroke="#4a4a8a" stroke-width="1.2" d="M503,-478C503,-478 371,-478 371,-478 365,-478 359,-472 359,-466 359,-466 359,-452 359,-452 359,-446 365,-440 371,-440 371,-440 503,-440 503,-440 509,-440 515,-446 515,-452 515,-452 515,-466 515,-466 515,-472 509,-478 503,-478"/>
<text text-anchor="start" x="375" y="-465" font-family="Helvetica,sans-Serif" font-weight="bold" font-size="10.00">Concurrent_Counter_3</text>
<text text-anchor="start" x="369" y="-449" font-family="Helvetica,sans-Serif" font-size="10.00">Type: CountDownWithDelay</text>
</g>
<!-- fe414ec8&#45;6421&#45;4fc4&#45;b699&#45;8b960de11219&#45;&gt;5a966b70&#45;f5d9&#45;4e07&#45;9f2c&#45;a61f0b9d21c7 -->
<g id="edge13" class="edge">
<title>fe414ec8&#45;6421&#45;4fc4&#45;b699&#45;8b960de11219&#45;&gt;5a966b70&#45;f5d9&#45;4e07&#45;9f2c&#45;a61f0b9d21c7</title>
<path fill="none" stroke="#333333" d="M315.44,-444.26C326.75,-445.65 338.8,-447.12 350.74,-448.58"/>
<polygon fill="#333333" stroke="#333333" points="350.69,-451.39 358.97,-449.59 351.37,-445.84 350.69,-451.39"/>
</g>
<!-- ee4cf975&#45;2712&#45;4614&#45;b8c3&#45;c800b8bbddef -->
<g id="node16" class="node">
<title>ee4cf975&#45;2712&#45;4614&#45;b8c3&#45;c800b8bbddef</title>
<path fill="#f7f7ff" stroke="#4a4a8a" stroke-width="1.2" d="M503,-390C503,-390 371,-390 371,-390 365,-390 359,-384 359,-378 359,-378 359,-364 359,-364 359,-358 365,-352 371,-352 371,-352 503,-352 503,-352 509,-352 515,-358 515,-364 515,-364 515,-378 515,-378 515,-384 509,-390 503,-390"/>
<text text-anchor="start" x="375" y="-377" font-family="Helvetica,sans-Serif" font-weight="bold" font-size="10.00">Concurrent_Counter_4</text>
<text text-anchor="start" x="369" y="-361" font-family="Helvetica,sans-Serif" font-size="10.00">Type: CountDownWithDelay</text>
</g>
<!-- fe414ec8&#45;6421&#45;4fc4&#45;b699&#45;8b960de11219&#45;&gt;ee4cf975&#45;2712&#45;4614&#45;b8c3&#45;c800b8bbddef -->
<g id="edge15" class="edge">
<title>fe414ec8&#45;6421&#45;4fc4&#45;b699&#45;8b960de11219&#45;&gt;ee4cf975&#45;2712&#45;4614&#45;b8c3&#45;c800b8bbddef</title>
<path fill="none" stroke="#333333" d="M308.06,-417.91C329.43,-410.08 354.28,-400.96 376.37,-392.87"/>
<polygon fill="#333333" stroke="#333333" points="377.51,-395.43 384.05,-390.05 375.58,-390.17 377.51,-395.43"/>
</g>
<!-- 7ab13152&#45;acb0&#45;4a78&#45;a40a&#45;fde16aae1ecb -->
<g id="node15" class="node">
<title>7ab13152&#45;acb0&#45;4a78&#45;a40a&#45;fde16aae1ecb</title>
<path fill="#f7f7ff" stroke="#4a4a8a" stroke-width="1.2" d="M629.5,-478C629.5,-478 560.5,-478 560.5,-478 554.5,-478 548.5,-472 548.5,-466 548.5,-466 548.5,-452 548.5,-452 548.5,-446 554.5,-440 560.5,-440 560.5,-440 629.5,-440 629.5,-440 635.5,-440 641.5,-446 641.5,-452 641.5,-452 641.5,-466 641.5,-466 641.5,-472 635.5,-478 629.5,-478"/>
<text text-anchor="start" x="564" y="-465" font-family="Helvetica,sans-Serif" font-weight="bold" font-size="10.00">message_7</text>
<text text-anchor="start" x="559" y="-449" font-family="Helvetica,sans-Serif" font-size="10.00">Type: Message</text>
</g>
<!-- 5a966b70&#45;f5d9&#45;4e07&#45;9f2c&#45;a61f0b9d21c7&#45;&gt;7ab13152&#45;acb0&#45;4a78&#45;a40a&#45;fde16aae1ecb -->
<g id="edge14" class="edge">
<title>5a966b70&#45;f5d9&#45;4e07&#45;9f2c&#45;a61f0b9d21c7&#45;&gt;7ab13152&#45;acb0&#45;4a78&#45;a40a&#45;fde16aae1ecb</title>
<path fill="none" stroke="#333333" d="M515.09,-459C523.52,-459 531.96,-459 540.03,-459"/>
<polygon fill="#333333" stroke="#333333" points="540.28,-461.8 548.28,-459 540.28,-456.2 540.28,-461.8"/>
</g>
<!-- 50ba801f&#45;4099&#45;42b2&#45;935d&#45;c978d492e5c0 -->
<g id="node17" class="node">
<title>50ba801f&#45;4099&#45;42b2&#45;935d&#45;c978d492e5c0</title>
<path fill="#f7f7ff" stroke="#4a4a8a" stroke-width="1.2" d="M629.5,-390C629.5,-390 560.5,-390 560.5,-390 554.5,-390 548.5,-384 548.5,-378 548.5,-378 548.5,-364 548.5,-364 548.5,-358 554.5,-352 560.5,-352 560.5,-352 629.5,-352 629.5,-352 635.5,-352 641.5,-358 641.5,-364 641.5,-364 641.5,-378 641.5,-378 641.5,-384 635.5,-390 629.5,-390"/>
<text text-anchor="start" x="564" y="-377" font-family="Helvetica,sans-Serif" font-weight="bold" font-size="10.00">message_8</text>
<text text-anchor="start" x="559" y="-361" font-family="Helvetica,sans-Serif" font-size="10.00">Type: Message</text>
</g>
<!-- ee4cf975&#45;2712&#45;4614&#45;b8c3&#45;c800b8bbddef&#45;&gt;50ba801f&#45;4099&#45;42b2&#45;935d&#45;c978d492e5c0 -->
<g id="edge16" class="edge">
<title>ee4cf975&#45;2712&#45;4614&#45;b8c3&#45;c800b8bbddef&#45;&gt;50ba801f&#45;4099&#45;42b2&#45;935d&#45;c978d492e5c0</title>
<path fill="none" stroke="#333333" d="M515.09,-371C523.52,-371 531.96,-371 540.03,-371"/>
<polygon fill="#333333" stroke="#333333" points="540.28,-373.8 548.28,-371 540.28,-368.2 540.28,-373.8"/>
</g>
<!-- 81000b2e&#45;b779&#45;43a7&#45;bf03&#45;ec0ee979bec2 -->
<g id="node19" class="node">
<title>81000b2e&#45;b779&#45;43a7&#45;bf03&#45;ec0ee979bec2</title>
<path fill="#f7f7ff" stroke="#4a4a8a" stroke-width="1.2" d="M473,-302C473,-302 401,-302 401,-302 395,-302 389,-296 389,-290 389,-290 389,-276 389,-276 389,-270 395,-264 401,-264 401,-264 473,-264 473,-264 479,-264 485,-270 485,-276 485,-276 485,-290 485,-290 485,-296 479,-302 473,-302"/>
<text text-anchor="start" x="417" y="-289" font-family="Helvetica,sans-Serif" font-weight="bold" font-size="10.00">repseq</text>
<text text-anchor="start" x="399" y="-273" font-family="Helvetica,sans-Serif" font-size="10.00">Type: Sequence</text>
</g>
<!-- 9f6afc74&#45;7a73&#45;45c5&#45;be58&#45;0500817f67a6&#45;&gt;81000b2e&#45;b779&#45;43a7&#45;bf03&#45;ec0ee979bec2 -->
<g id="edge18" class="edge">
<title>9f6afc74&#45;7a73&#45;45c5&#45;be58&#45;0500817f67a6&#45;&gt;81000b2e&#45;b779&#45;43a7&#45;bf03&#45;ec0ee979bec2</title>
<path fill="none" stroke="#333333" d="M303.76,-315.32C327.54,-309.51 356.4,-302.46 381.09,-296.42"/>
<polygon fill="#333333" stroke="#333333" points="381.84,-299.12 388.95,-294.5 380.51,-293.68 381.84,-299.12"/>
</g>
<!-- f44ffc08&#45;0090&#45;4ebe&#45;b405&#45;2386629d6adc -->
<g id="node20" class="node">
<title>f44ffc08&#45;0090&#45;4ebe&#45;b405&#45;2386629d6adc</title>
<path fill="#f7f7ff" stroke="#4a4a8a" stroke-width="1.2" d="M629.5,-302C629.5,-302 560.5,-302 560.5,-302 554.5,-302 548.5,-296 548.5,-290 548.5,-290 548.5,-276 548.5,-276 548.5,-270 554.5,-264 560.5,-264 560.5,-264 629.5,-264 629.5,-264 635.5,-264 641.5,-270 641.5,-276 641.5,-276 641.5,-290 641.5,-290 641.5,-296 635.5,-302 629.5,-302"/>
<text text-anchor="start" x="564" y="-289" font-family="Helvetica,sans-Serif" font-weight="bold" font-size="10.00">message_9</text>
<text text-anchor="start" x="559" y="-273" font-family="Helvetica,sans-Serif" font-size="10.00">Type: Message</text>
</g>
<!-- 81000b2e&#45;b779&#45;43a7&#45;bf03&#45;ec0ee979bec2&#45;&gt;f44ffc08&#45;0090&#45;4ebe&#45;b405&#45;2386629d6adc -->
<g id="edge19" class="edge">
<title>81000b2e&#45;b779&#45;43a7&#45;bf03&#45;ec0ee979bec2&#45;&gt;f44ffc08&#45;0090&#45;4ebe&#45;b405&#45;2386629d6adc</title>
<path fill="none" stroke="#333333" d="M485.23,-283C502.57,-283 522.33,-283 540.21,-283"/>
<polygon fill="#333333" stroke="#333333" points="540.27,-285.8 548.27,-283 540.27,-280.2 540.27,-285.8"/>
</g>
<!-- 87361281&#45;c667&#45;4dc3&#45;ba6d&#45;60e56feb1212 -->
<g id="node21" class="node">
<title>87361281&#45;c667&#45;4dc3&#45;ba6d&#45;60e56feb1212</title>
<path fill="#f7f7ff" stroke="#4a4a8a" stroke-width="1.2" d="M634,-214C634,-214 556,-214 556,-214 550,-214 544,-208 544,-202 544,-202 544,-188 544,-188 544,-182 550,-176 556,-176 556,-176 634,-176 634,-176 640,-176 646,-182 646,-188 646,-188 646,-202 646,-202 646,-208 640,-214 634,-214"/>
<text text-anchor="start" x="579" y="-201" font-family="Helvetica,sans-Serif" font-weight="bold" font-size="10.00">delay</text>
<text text-anchor="start" x="554" y="-185" font-family="Helvetica,sans-Serif" font-size="10.00">Type: TimedWait</text>
</g>
<!-- 81000b2e&#45;b779&#45;43a7&#45;bf03&#45;ec0ee979bec2&#45;&gt;87361281&#45;c667&#45;4dc3&#45;ba6d&#45;60e56feb1212 -->
<g id="edge20" class="edge">
<title>81000b2e&#45;b779&#45;43a7&#45;bf03&#45;ec0ee979bec2&#45;&gt;87361281&#45;c667&#45;4dc3&#45;ba6d&#45;60e56feb1212</title>
<path fill="none" stroke="#333333" d="M471.85,-263.91C495.67,-250.47 527.67,-232.42 552.94,-218.16"/>
<polygon fill="#333333" stroke="#333333" points="554.62,-220.43 560.22,-214.06 551.87,-215.55 554.62,-220.43"/>
</g>
<!-- 642090f6&#45;aaea&#45;41f4&#45;9b95&#45;96c5dcdd5c42 -->
<g id="node23" class="node">
<title>642090f6&#45;aaea&#45;41f4&#45;9b95&#45;96c5dcdd5c42</title>
<path fill="#f7f7ff" stroke="#4a4a8a" stroke-width="1.2" d="M486.5,-214C486.5,-214 387.5,-214 387.5,-214 381.5,-214 375.5,-208 375.5,-202 375.5,-202 375.5,-188 375.5,-188 375.5,-182 381.5,-176 387.5,-176 387.5,-176 486.5,-176 486.5,-176 492.5,-176 498.5,-182 498.5,-188 498.5,-188 498.5,-202 498.5,-202 498.5,-208 492.5,-214 486.5,-214"/>
<text text-anchor="start" x="395" y="-201" font-family="Helvetica,sans-Serif" font-weight="bold" font-size="10.00">Cancel_State_1</text>
<text text-anchor="start" x="386" y="-185" font-family="Helvetica,sans-Serif" font-size="10.00">Type: CancelingState</text>
</g>
<!-- 2bdb671d&#45;aa3a&#45;4a7b&#45;afa1&#45;de84a01dd301&#45;&gt;642090f6&#45;aaea&#45;41f4&#45;9b95&#45;96c5dcdd5c42 -->
<g id="edge22" class="edge">
<title>2bdb671d&#45;aa3a&#45;4a7b&#45;afa1&#45;de84a01dd301&#45;&gt;642090f6&#45;aaea&#45;41f4&#45;9b95&#45;96c5dcdd5c42</title>
<path fill="none" stroke="#333333" d="M307.58,-163.61C326.2,-168.16 347.52,-173.37 367.36,-178.22"/>
<polygon fill="#333333" stroke="#333333" points="366.74,-180.95 375.18,-180.13 368.07,-175.51 366.74,-180.95"/>
</g>
<!-- 0c49f333&#45;84ef&#45;42e9&#45;806b&#45;79d4e02c7902 -->
<g id="node24" class="node">
<title>0c49f333&#45;84ef&#45;42e9&#45;806b&#45;79d4e02c7902</title>
<path fill="#f7f7ff" stroke="#4a4a8a" stroke-width="1.2" d="M486.5,-126C486.5,-126 387.5,-126 387.5,-126 381.5,-126 375.5,-120 375.5,-114 375.5,-114 375.5,-100 375.5,-100 375.5,-94 381.5,-88 387.5,-88 387.5,-88 486.5,-88 486.5,-88 492.5,-88 498.5,-94 498.5,-100 498.5,-100 498.5,-114 498.5,-114 498.5,-120 492.5,-126 486.5,-126"/>
<text text-anchor="start" x="395" y="-113" font-family="Helvetica,sans-Serif" font-weight="bold" font-size="10.00">Cancel_State_2</text>
<text text-anchor="start" x="386" y="-97" font-family="Helvetica,sans-Serif" font-size="10.00">Type: CancelingState</text>
</g>
<!-- 2bdb671d&#45;aa3a&#45;4a7b&#45;afa1&#45;de84a01dd301&#45;&gt;0c49f333&#45;84ef&#45;42e9&#45;806b&#45;79d4e02c7902 -->
<g id="edge23" class="edge">
<title>2bdb671d&#45;aa3a&#45;4a7b&#45;afa1&#45;de84a01dd301&#45;&gt;0c49f333&#45;84ef&#45;42e9&#45;806b&#45;79d4e02c7902</title>
<path fill="none" stroke="#333333" d="M307.58,-138.39C326.2,-133.84 347.52,-128.63 367.36,-123.78"/>
<polygon fill="#333333" stroke="#333333" points="368.07,-126.49 375.18,-121.87 366.74,-121.05 368.07,-126.49"/>
</g>
<!-- ad490ec5&#45;b0aa&#45;4117&#45;9bc1&#45;1be8cda6c380 -->
<g id="node25" class="node">
<title>ad490ec5&#45;b0aa&#45;4117&#45;9bc1&#45;1be8cda6c380</title>
<path fill="#f7f7ff" stroke="#4a4a8a" stroke-width="1.2" d="M471.5,-38C471.5,-38 402.5,-38 402.5,-38 396.5,-38 390.5,-32 390.5,-26 390.5,-26 390.5,-12 390.5,-12 390.5,-6 396.5,0 402.5,0 402.5,0 471.5,0 471.5,0 477.5,0 483.5,-6 483.5,-12 483.5,-12 483.5,-26 483.5,-26 483.5,-32 477.5,-38 471.5,-38"/>
<text text-anchor="start" x="402.5" y="-25" font-family="Helvetica,sans-Serif" font-weight="bold" font-size="10.00">message_10</text>
<text text-anchor="start" x="401" y="-9" font-family="Helvetica,sans-Serif" font-size="10.00">Type: Message</text>
</g>
<!-- 2bdb671d&#45;aa3a&#45;4a7b&#45;afa1&#45;de84a01dd301&#45;&gt;ad490ec5&#45;b0aa&#45;4117&#45;9bc1&#45;1be8cda6c380 -->
<g id="edge24" class="edge">
<title>2bdb671d&#45;aa3a&#45;4a7b&#45;afa1&#45;de84a01dd301&#45;&gt;ad490ec5&#45;b0aa&#45;4117&#45;9bc1&#45;1be8cda6c380</title>
<path fill="none" stroke="#333333" d="M275.98,-131.94C296.09,-113.25 328.41,-84.52 359,-63 369.43,-55.66 381.18,-48.46 392.29,-42.08"/>
<polygon fill="#333333" stroke="#333333" points="393.9,-44.39 399.49,-38.02 391.14,-39.52 393.9,-44.39"/>
</g>
</g>
</svg>
