<?xml version="1.0" encoding="UTF-8" standalone="no"?>
<!DOCTYPE svg PUBLIC "-//W3C//DTD SVG 1.1//EN"
 "http://www.w3.org/Graphics/SVG/1.1/DTD/svg11.dtd">
<!-- Generated by graphviz version 2.43.0 (0)
 -->
<!-- Title: StateMachine Pages: 1 -->
<svg width="289pt" height="398pt"
 viewBox="0.00 0.00 289.00 398.00" xmlns="http://www.w3.org/2000/svg" xmlns:xlink="http://www.w3.org/1999/xlink">
<g id="graph0" class="graph" transform="scale(1 1) rotate(0) translate(4 394)">
<title>StateMachine</title>
<polygon fill="white" stroke="transparent" points="-4,4 -4,-394 285,-394 285,4 -4,4"/>
<!-- e5b51d54&#45;d56f&#45;4339&#45;a53b&#45;e8525c2d14ff -->
<g id="node1" class="node">
<title>e5b51d54&#45;d56f&#45;4339&#45;a53b&#45;e8525c2d14ff</title>
<path fill="#f7f7ff" stroke="#4a4a8a" stroke-width="1.2" d="M119,-214C119,-214 12,-214 12,-214 6,-214 0,-208 0,-202 0,-202 0,-188 0,-188 0,-182 6,-176 12,-176 12,-176 119,-176 119,-176 125,-176 131,-182 131,-188 131,-188 131,-202 131,-202 131,-208 125,-214 119,-214"/>
<text text-anchor="start" x="14" y="-201" font-family="Helvetica,sans-Serif" font-weight="bold" font-size="10.00">my_state_machine</text>
<text text-anchor="start" x="10.5" y="-185" font-family="Helvetica,sans-Serif" font-size="10.00">Type: MyStateMachine</text>
</g>
<!-- 2777a167&#45;9680&#45;4508&#45;9c90&#45;eb86c634bba7 -->
<g id="node2" class="node">
<title>2777a167&#45;9680&#45;4508&#45;9c90&#45;eb86c634bba7</title>
<path fill="#f7f7ff" stroke="#4a4a8a" stroke-width="1.2" d="M255,-390C255,-390 186,-390 186,-390 180,-390 174,-384 174,-378 174,-378 174,-364 174,-364 174,-358 180,-352 186,-352 186,-352 255,-352 255,-352 261,-352 267,-358 267,-364 267,-364 267,-378 267,-378 267,-384 261,-390 255,-390"/>
<text text-anchor="start" x="189.5" y="-377" font-family="Helvetica,sans-Serif" font-weight="bold" font-size="10.00">message_1</text>
<text text-anchor="start" x="184.5" y="-361" font-family="Helvetica,sans-Serif" font-size="10.00">Type: Message</text>
</g>
<!-- e5b51d54&#45;d56f&#45;4339&#45;a53b&#45;e8525c2d14ff&#45;&gt;2777a167&#45;9680&#45;4508&#45;9c90&#45;eb86c634bba7 -->
<g id="edge1" class="edge">
<title>e5b51d54&#45;d56f&#45;4339&#45;a53b&#45;e8525c2d14ff&#45;&gt;2777a167&#45;9680&#45;4508&#45;9c90&#45;eb86c634bba7</title>
<path fill="none" stroke="#333333" d="M77.51,-214.35C93.48,-241.42 125.02,-291.29 160,-327 166.95,-334.1 175.14,-340.92 183.17,-346.99"/>
<polygon fill="#333333" stroke="#333333" points="181.75,-349.42 189.86,-351.9 185.07,-344.91 181.75,-349.42"/>
</g>
<!-- d7f56ff2&#45;f6b7&#45;410a&#45;a988&#45;8244696ba746 -->
<g id="node3" class="node">
<title>d7f56ff2&#45;f6b7&#45;410a&#45;a988&#45;8244696ba746</title>
<path fill="#f7f7ff" stroke="#4a4a8a" stroke-width="1.2" d="M261,-302C261,-302 180,-302 180,-302 174,-302 168,-296 168,-290 168,-290 168,-276 168,-276 168,-270 174,-264 180,-264 180,-264 261,-264 261,-264 267,-264 273,-270 273,-276 273,-276 273,-290 273,-290 273,-296 267,-302 261,-302"/>
<text text-anchor="start" x="199.5" y="-289" font-family="Helvetica,sans-Serif" font-weight="bold" font-size="10.00">counter</text>
<text text-anchor="start" x="178.5" y="-273" font-family="Helvetica,sans-Serif" font-size="10.00">Type: CountDown</text>
</g>
<!-- e5b51d54&#45;d56f&#45;4339&#45;a53b&#45;e8525c2d14ff&#45;&gt;d7f56ff2&#45;f6b7&#45;410a&#45;a988&#45;8244696ba746 -->
<g id="edge2" class="edge">
<title>e5b51d54&#45;d56f&#45;4339&#45;a53b&#45;e8525c2d14ff&#45;&gt;d7f56ff2&#45;f6b7&#45;410a&#45;a988&#45;8244696ba746</title>
<path fill="none" stroke="#333333" d="M99.7,-214.09C123.06,-227.53 154.44,-245.58 179.23,-259.84"/>
<polygon fill="#333333" stroke="#333333" points="178.04,-262.38 186.37,-263.94 180.83,-257.53 178.04,-262.38"/>
</g>
<!-- 3fe907b9&#45;487f&#45;431b&#45;9404&#45;c78c00823d39 -->
<g id="node4" class="node">
<title>3fe907b9&#45;487f&#45;431b&#45;9404&#45;c78c00823d39</title>
<path fill="#f7f7ff" stroke="#4a4a8a" stroke-width="1.2" d="M267,-214C267,-214 174,-214 174,-214 168,-214 162,-208 162,-202 162,-202 162,-188 162,-188 162,-182 168,-176 174,-176 174,-176 267,-176 267,-176 273,-176 279,-182 279,-188 279,-188 279,-202 279,-202 279,-208 273,-214 267,-214"/>
<text text-anchor="start" x="172.5" y="-201" font-family="Helvetica,sans-Serif" font-weight="bold" font-size="10.00">waiting 1 second</text>
<text text-anchor="start" x="172.5" y="-185" font-family="Helvetica,sans-Serif" font-size="10.00">Type: TimedWait</text>
</g>
<!-- e5b51d54&#45;d56f&#45;4339&#45;a53b&#45;e8525c2d14ff&#45;&gt;3fe907b9&#45;487f&#45;431b&#45;9404&#45;c78c00823d39 -->
<g id="edge3" class="edge">
<title>e5b51d54&#45;d56f&#45;4339&#45;a53b&#45;e8525c2d14ff&#45;&gt;3fe907b9&#45;487f&#45;431b&#45;9404&#45;c78c00823d39</title>
<path fill="none" stroke="#333333" d="M131.39,-195C138.64,-195 146.05,-195 153.32,-195"/>
<polygon fill="#333333" stroke="#333333" points="153.79,-197.8 161.79,-195 153.79,-192.2 153.79,-197.8"/>
</g>
<!-- bfedf2d9&#45;fe50&#45;4bbd&#45;bd32&#45;3722cf347b69 -->
<g id="node5" class="node">
<title>bfedf2d9&#45;fe50&#45;4bbd&#45;bd32&#45;3722cf347b69</title>
<path fill="#f7f7ff" stroke="#4a4a8a" stroke-width="1.2" d="M269,-126C269,-126 172,-126 172,-126 166,-126 160,-120 160,-114 160,-114 160,-100 160,-100 160,-94 166,-88 172,-88 172,-88 269,-88 269,-88 275,-88 281,-94 281,-100 281,-100 281,-114 281,-114 281,-120 275,-126 269,-126"/>
<text text-anchor="start" x="185" y="-113" font-family="Helvetica,sans-Serif" font-weight="bold" font-size="10.00">checkFailure</text>
<text text-anchor="start" x="170.5" y="-97" font-family="Helvetica,sans-Serif" font-size="10.00">Type: FailSometimes</text>
</g>
<!-- e5b51d54&#45;d56f&#45;4339&#45;a53b&#45;e8525c2d14ff&#45;&gt;bfedf2d9&#45;fe50&#45;4bbd&#45;bd32&#45;3722cf347b69 -->
<g id="edge4" class="edge">
<title>e5b51d54&#45;d56f&#45;4339&#45;a53b&#45;e8525c2d14ff&#45;&gt;bfedf2d9&#45;fe50&#45;4bbd&#45;bd32&#45;3722cf347b69</title>
<path fill="none" stroke="#333333" d="M99.7,-175.91C123.06,-162.47 154.44,-144.42 179.23,-130.16"/>
<polygon fill="#333333" stroke="#333333" points="180.83,-132.47 186.37,-126.06 178.04,-127.62 180.83,-132.47"/>
</g>
<!-- 97024c71&#45;d5fd&#45;4c61&#45;a3a6&#45;5494ea543ab7 -->
<g id="node6" class="node">
<title>97024c71&#45;d5fd&#45;4c61&#45;a3a6&#45;5494ea543ab7</title>
<path fill="#f7f7ff" stroke="#4a4a8a" stroke-width="1.2" d="M255,-38C255,-38 186,-38 186,-38 180,-38 174,-32 174,-26 174,-26 174,-12 174,-12 174,-6 180,0 186,0 186,0 255,0 255,0 261,0 267,-6 267,-12 267,-12 267,-26 267,-26 267,-32 261,-38 255,-38"/>
<text text-anchor="start" x="189.5" y="-25" font-family="Helvetica,sans-Serif" font-weight="bold" font-size="10.00">message_2</text>
<text text-anchor="start" x="184.5" y="-9" font-family="Helvetica,sans-Serif" font-size="10.00">Type: Message</text>
</g>
<!-- e5b51d54&#45;d56f&#45;4339&#45;a53b&#45;e8525c2d14ff&#45;&gt;97024c71&#45;d5fd&#45;4c61&#45;a3a6&#45;5494ea543ab7 -->
<g id="edge5" class="edge">
<title>e5b51d54&#45;d56f&#45;4339&#45;a53b&#45;e8525c2d14ff&#45;&gt;97024c71&#45;d5fd&#45;4c61&#45;a3a6&#45;5494ea543ab7</title>
<path fill="none" stroke="#333333" d="M77.51,-175.65C93.48,-148.58 125.02,-98.71 160,-63 166.95,-55.9 175.14,-49.08 183.17,-43.01"/>
<polygon fill="#333333" stroke="#333333" points="185.07,-45.09 189.86,-38.1 181.75,-40.58 185.07,-45.09"/>
</g>
</g>
</svg>
