<?xml version="1.0" encoding="UTF-8" standalone="no"?>
<!DOCTYPE svg PUBLIC "-//W3C//DTD SVG 1.1//EN"
 "http://www.w3.org/Graphics/SVG/1.1/DTD/svg11.dtd">
<!-- Generated by graphviz version 2.43.0 (0)
 -->
<!-- Title: StateMachine Pages: 1 -->
<svg width="499pt" height="463pt"
 viewBox="0.00 0.00 499.00 463.00" xmlns="http://www.w3.org/2000/svg" xmlns:xlink="http://www.w3.org/1999/xlink">
<g id="graph0" class="graph" transform="scale(1 1) rotate(0) translate(4 459)">
<title>StateMachine</title>
<polygon fill="white" stroke="transparent" points="-4,4 -4,-459 495,-459 495,4 -4,4"/>
<!-- annotation -->
<g id="node1" class="node">
<title>annotation</title>
<text text-anchor="middle" x="245.5" y="-14.9" font-family="Helvetica,sans-Serif" font-size="12.00">ABORT and TICKING outcomes exit the state machine unless specified explicitly</text>
</g>
<!-- entry -->
<g id="node2" class="node">
<title>entry</title>
<ellipse fill="black" stroke="black" cx="245.5" cy="-448" rx="7" ry="7"/>
</g>
<!-- 2777a167&#45;9680&#45;4508&#45;9c90&#45;eb86c634bba7 -->
<g id="node3" class="node">
<title>2777a167&#45;9680&#45;4508&#45;9c90&#45;eb86c634bba7</title>
<path fill="#f7f7ff" stroke="#4a4a8a" stroke-width="1.2" d="M280,-401C280,-401 211,-401 211,-401 205,-401 199,-395 199,-389 199,-389 199,-375 199,-375 199,-369 205,-363 211,-363 211,-363 280,-363 280,-363 286,-363 292,-369 292,-375 292,-375 292,-389 292,-389 292,-395 286,-401 280,-401"/>
<text text-anchor="start" x="214.5" y="-388" font-family="Helvetica,sans-Serif" font-weight="bold" font-size="10.00">message_1</text>
<text text-anchor="start" x="209.5" y="-372" font-family="Helvetica,sans-Serif" font-size="10.00">Type: Message</text>
</g>
<!-- entry&#45;&gt;2777a167&#45;9680&#45;4508&#45;9c90&#45;eb86c634bba7 -->
<g id="edge7" class="edge">
<title>entry&#45;&gt;2777a167&#45;9680&#45;4508&#45;9c90&#45;eb86c634bba7</title>
<path fill="none" stroke="#333333" d="M245.5,-440.63C245.5,-433.3 245.5,-420.8 245.5,-409.31"/>
<polygon fill="#333333" stroke="#333333" points="248.3,-409.21 245.5,-401.21 242.7,-409.21 248.3,-409.21"/>
<text text-anchor="start" x="245.5" y="-418.8" font-family="Helvetica,sans-Serif" font-size="9.00"> &#160;&#160;&#160;&#160;&#160;</text>
</g>
<!-- d7f56ff2&#45;f6b7&#45;410a&#45;a988&#45;8244696ba746 -->
<g id="node4" class="node">
<title>d7f56ff2&#45;f6b7&#45;410a&#45;a988&#45;8244696ba746</title>
<path fill="#f7f7ff" stroke="#4a4a8a" stroke-width="1.2" d="M286,-323C286,-323 205,-323 205,-323 199,-323 193,-317 193,-311 193,-311 193,-297 193,-297 193,-291 199,-285 205,-285 205,-285 286,-285 286,-285 292,-285 298,-291 298,-297 298,-297 298,-311 298,-311 298,-317 292,-323 286,-323"/>
<text text-anchor="start" x="224.5" y="-310" font-family="Helvetica,sans-Serif" font-weight="bold" font-size="10.00">counter</text>
<text text-anchor="start" x="203.5" y="-294" font-family="Helvetica,sans-Serif" font-size="10.00">Type: CountDown</text>
</g>
<!-- 2777a167&#45;9680&#45;4508&#45;9c90&#45;eb86c634bba7&#45;&gt;d7f56ff2&#45;f6b7&#45;410a&#45;a988&#45;8244696ba746 -->
<g id="edge1" class="edge">
<title>2777a167&#45;9680&#45;4508&#45;9c90&#45;eb86c634bba7&#45;&gt;d7f56ff2&#45;f6b7&#45;410a&#45;a988&#45;8244696ba746</title>
<path fill="none" stroke="#333333" d="M245.5,-362.99C245.5,-353.5 245.5,-341.68 245.5,-331.2"/>
<polygon fill="#333333" stroke="#333333" points="248.3,-331.15 245.5,-323.15 242.7,-331.15 248.3,-331.15"/>
<text text-anchor="start" x="245.5" y="-340.8" font-family="Helvetica,sans-Serif" font-size="9.00"> &#160;&#160;SUCCEED &#160;&#160;</text>
</g>
<!-- 3fe907b9&#45;487f&#45;431b&#45;9404&#45;c78c00823d39 -->
<g id="node5" class="node">
<title>3fe907b9&#45;487f&#45;431b&#45;9404&#45;c78c00823d39</title>
<path fill="#f7f7ff" stroke="#4a4a8a" stroke-width="1.2" d="M213,-245C213,-245 120,-245 120,-245 114,-245 108,-239 108,-233 108,-233 108,-219 108,-219 108,-213 114,-207 120,-207 120,-207 213,-207 213,-207 219,-207 225,-213 225,-219 225,-219 225,-233 225,-233 225,-239 219,-245 213,-245"/>
<text text-anchor="start" x="118.5" y="-232" font-family="Helvetica,sans-Serif" font-weight="bold" font-size="10.00">waiting 1 second</text>
<text text-anchor="start" x="118.5" y="-216" font-family="Helvetica,sans-Serif" font-size="10.00">Type: TimedWait</text>
</g>
<!-- d7f56ff2&#45;f6b7&#45;410a&#45;a988&#45;8244696ba746&#45;&gt;3fe907b9&#45;487f&#45;431b&#45;9404&#45;c78c00823d39 -->
<g id="edge2" class="edge">
<title>d7f56ff2&#45;f6b7&#45;410a&#45;a988&#45;8244696ba746&#45;&gt;3fe907b9&#45;487f&#45;431b&#45;9404&#45;c78c00823d39</title>
<path fill="none" stroke="#333333" d="M226.78,-284.99C216.13,-274.75 202.67,-261.8 191.17,-250.73"/>
<polygon fill="#333333" stroke="#333333" points="193.07,-248.67 185.36,-245.15 189.19,-252.71 193.07,-248.67"/>
<text text-anchor="start" x="211.5" y="-262.8" font-family="Helvetica,sans-Serif" font-size="9.00"> &#160;&#160;SUCCEED &#160;&#160;</text>
</g>
<!-- bfedf2d9&#45;fe50&#45;4bbd&#45;bd32&#45;3722cf347b69 -->
<g id="node6" class="node">
<title>bfedf2d9&#45;fe50&#45;4bbd&#45;bd32&#45;3722cf347b69</title>
<path fill="#f7f7ff" stroke="#4a4a8a" stroke-width="1.2" d="M294,-167C294,-167 197,-167 197,-167 191,-167 185,-161 185,-155 185,-155 185,-141 185,-141 185,-135 191,-129 197,-129 197,-129 294,-129 294,-129 300,-129 306,-135 306,-141 306,-141 306,-155 306,-155 306,-161 300,-167 294,-167"/>
<text text-anchor="start" x="210" y="-154" font-family="Helvetica,sans-Serif" font-weight="bold" font-size="10.00">checkFailure</text>
<text text-anchor="start" x="195.5" y="-138" font-family="Helvetica,sans-Serif" font-size="10.00">Type: FailSometimes</text>
</g>
<!-- 3fe907b9&#45;487f&#45;431b&#45;9404&#45;c78c00823d39&#45;&gt;bfedf2d9&#45;fe50&#45;4bbd&#45;bd32&#45;3722cf347b69 -->
<g id="edge3" class="edge">
<title>3fe907b9&#45;487f&#45;431b&#45;9404&#45;c78c00823d39&#45;&gt;bfedf2d9&#45;fe50&#45;4bbd&#45;bd32&#45;3722cf347b69</title>
<path fill="none" stroke="#333333" d="M185.22,-206.99C195.87,-196.75 209.33,-183.8 220.83,-172.73"/>
<polygon fill="#333333" stroke="#333333" points="222.81,-174.71 226.64,-167.15 218.93,-170.67 222.81,-174.71"/>
<text text-anchor="start" x="211.5" y="-184.8" font-family="Helvetica,sans-Serif" font-size="9.00"> &#160;&#160;SUCCEED &#160;&#160;</text>
</g>
<!-- bfedf2d9&#45;fe50&#45;4bbd&#45;bd32&#45;3722cf347b69&#45;&gt;d7f56ff2&#45;f6b7&#45;410a&#45;a988&#45;8244696ba746 -->
<g id="edge5" class="edge">
<title>bfedf2d9&#45;fe50&#45;4bbd&#45;bd32&#45;3722cf347b69&#45;&gt;d7f56ff2&#45;f6b7&#45;410a&#45;a988&#45;8244696ba746</title>
<path fill="none" stroke="#333333" d="M274.31,-167.29C278.84,-171.54 282.89,-176.46 285.5,-182 302.18,-217.38 302.18,-234.62 285.5,-270 284.03,-273.11 282.11,-276.04 279.9,-278.75"/>
<polygon fill="#333333" stroke="#333333" points="277.74,-276.96 274.31,-284.71 281.83,-280.79 277.74,-276.96"/>
<text text-anchor="start" x="297.5" y="-223.8" font-family="Helvetica,sans-Serif" font-size="9.00"> &#160;&#160;SUCCEED &#160;&#160;</text>
</g>
<!-- 97024c71&#45;d5fd&#45;4c61&#45;a3a6&#45;5494ea543ab7 -->
<g id="node7" class="node">
<title>97024c71&#45;d5fd&#45;4c61&#45;a3a6&#45;5494ea543ab7</title>
<path fill="#f7f7ff" stroke="#4a4a8a" stroke-width="1.2" d="M280,-89C280,-89 211,-89 211,-89 205,-89 199,-83 199,-77 199,-77 199,-63 199,-63 199,-57 205,-51 211,-51 211,-51 280,-51 280,-51 286,-51 292,-57 292,-63 292,-63 292,-77 292,-77 292,-83 286,-89 280,-89"/>
<text text-anchor="start" x="214.5" y="-76" font-family="Helvetica,sans-Serif" font-weight="bold" font-size="10.00">message_2</text>
<text text-anchor="start" x="209.5" y="-60" font-family="Helvetica,sans-Serif" font-size="10.00">Type: Message</text>
</g>
<!-- bfedf2d9&#45;fe50&#45;4bbd&#45;bd32&#45;3722cf347b69&#45;&gt;97024c71&#45;d5fd&#45;4c61&#45;a3a6&#45;5494ea543ab7 -->
<g id="edge4" class="edge">
<title>bfedf2d9&#45;fe50&#45;4bbd&#45;bd32&#45;3722cf347b69&#45;&gt;97024c71&#45;d5fd&#45;4c61&#45;a3a6&#45;5494ea543ab7</title>
<path fill="none" stroke="#333333" d="M245.5,-128.99C245.5,-119.5 245.5,-107.68 245.5,-97.2"/>
<polygon fill="#333333" stroke="#333333" points="248.3,-97.15 245.5,-89.15 242.7,-97.15 248.3,-97.15"/>
<text text-anchor="start" x="245.5" y="-106.8" font-family="Helvetica,sans-Serif" font-size="9.00"> &#160;&#160;CANCEL &#160;&#160;</text>
</g>
<!-- 97024c71&#45;d5fd&#45;4c61&#45;a3a6&#45;5494ea543ab7&#45;&gt;97024c71&#45;d5fd&#45;4c61&#45;a3a6&#45;5494ea543ab7 -->
<g id="edge6" class="edge">
<title>97024c71&#45;d5fd&#45;4c61&#45;a3a6&#45;5494ea543ab7&#45;&gt;97024c71&#45;d5fd&#45;4c61&#45;a3a6&#45;5494ea543ab7</title>
<path fill="none" stroke="#333333" d="M292.17,-76.78C318.11,-78.05 342,-75.79 342,-70 342,-64.82 322.88,-62.47 300.28,-62.93"/>
<polygon fill="#333333" stroke="#333333" points="300.07,-60.14 292.17,-63.22 300.26,-65.74 300.07,-60.14"/>
<text text-anchor="start" x="342" y="-67.8" font-family="Helvetica,sans-Serif" font-size="9.00"> &#160;&#160;SUCCEED → &#160;SUCCEED &#160;&#160;</text>
</g>
</g>
</svg>
