<?xml version="1.0" encoding="UTF-8" standalone="no"?>
<!DOCTYPE svg PUBLIC "-//W3C//DTD SVG 1.1//EN"
 "http://www.w3.org/Graphics/SVG/1.1/DTD/svg11.dtd">
<!-- Generated by graphviz version 2.43.0 (0)
 -->
<!-- Title: StateMachine Pages: 1 -->
<svg width="255pt" height="310pt"
 viewBox="0.00 0.00 255.00 310.00" xmlns="http://www.w3.org/2000/svg" xmlns:xlink="http://www.w3.org/1999/xlink">
<g id="graph0" class="graph" transform="scale(1 1) rotate(0) translate(4 306)">
<title>StateMachine</title>
<polygon fill="white" stroke="transparent" points="-4,4 -4,-306 251,-306 251,4 -4,4"/>
<!-- 098f1371&#45;d6a5&#45;4e2d&#45;885c&#45;df286fb54f42 -->
<g id="node1" class="node">
<title>098f1371&#45;d6a5&#45;4e2d&#45;885c&#45;df286fb54f42</title>
<path fill="#f7f7ff" stroke="#4a4a8a" stroke-width="1.2" d="M101,-170C101,-170 12,-170 12,-170 6,-170 0,-164 0,-158 0,-158 0,-144 0,-144 0,-138 6,-132 12,-132 12,-132 101,-132 101,-132 107,-132 113,-138 113,-144 113,-144 113,-158 113,-158 113,-164 107,-170 101,-170"/>
<text text-anchor="start" x="10.5" y="-157" font-family="Helvetica,sans-Serif" font-weight="bold" font-size="10.00">sequence_phase</text>
<text text-anchor="start" x="10.5" y="-141" font-family="Helvetica,sans-Serif" font-size="10.00">Type: Sequence</text>
</g>
<!-- 51f4f3d7&#45;9e50&#45;4727&#45;9620&#45;1e6b108716e7 -->
<g id="node2" class="node">
<title>51f4f3d7&#45;9e50&#45;4727&#45;9620&#45;1e6b108716e7</title>
<path fill="#f7f7ff" stroke="#4a4a8a" stroke-width="1.2" d="M229,-302C229,-302 160,-302 160,-302 154,-302 148,-296 148,-290 148,-290 148,-276 148,-276 148,-270 154,-264 160,-264 160,-264 229,-264 229,-264 235,-264 241,-270 241,-276 241,-276 241,-290 241,-290 241,-296 235,-302 229,-302"/>
<text text-anchor="start" x="163.5" y="-289" font-family="Helvetica,sans-Serif" font-weight="bold" font-size="10.00">message_1</text>
<text text-anchor="start" x="158.5" y="-273" font-family="Helvetica,sans-Serif" font-size="10.00">Type: Message</text>
</g>
<!-- 098f1371&#45;d6a5&#45;4e2d&#45;885c&#45;df286fb54f42&#45;&gt;51f4f3d7&#45;9e50&#45;4727&#45;9620&#45;1e6b108716e7 -->
<g id="edge1" class="edge">
<title>098f1371&#45;d6a5&#45;4e2d&#45;885c&#45;df286fb54f42&#45;&gt;51f4f3d7&#45;9e50&#45;4727&#45;9620&#45;1e6b108716e7</title>
<path fill="none" stroke="#333333" d="M74.79,-170.06C91.51,-188.25 117.81,-216.18 142,-239 148.88,-245.49 156.51,-252.24 163.75,-258.45"/>
<polygon fill="#333333" stroke="#333333" points="162.35,-260.93 170.26,-263.98 165.98,-256.66 162.35,-260.93"/>
</g>
<!-- 498fca2f&#45;83bc&#45;4fd2&#45;ba16&#45;46787a130dad -->
<g id="node3" class="node">
<title>498fca2f&#45;83bc&#45;4fd2&#45;ba16&#45;46787a130dad</title>
<path fill="#f7f7ff" stroke="#4a4a8a" stroke-width="1.2" d="M235,-214C235,-214 154,-214 154,-214 148,-214 142,-208 142,-202 142,-202 142,-188 142,-188 142,-182 148,-176 154,-176 154,-176 235,-176 235,-176 241,-176 247,-182 247,-188 247,-188 247,-202 247,-202 247,-208 241,-214 235,-214"/>
<text text-anchor="start" x="154.5" y="-201" font-family="Helvetica,sans-Serif" font-weight="bold" font-size="10.00">seq_counter_1</text>
<text text-anchor="start" x="152.5" y="-185" font-family="Helvetica,sans-Serif" font-size="10.00">Type: CountDown</text>
</g>
<!-- 098f1371&#45;d6a5&#45;4e2d&#45;885c&#45;df286fb54f42&#45;&gt;498fca2f&#45;83bc&#45;4fd2&#45;ba16&#45;46787a130dad -->
<g id="edge2" class="edge">
<title>098f1371&#45;d6a5&#45;4e2d&#45;885c&#45;df286fb54f42&#45;&gt;498fca2f&#45;83bc&#45;4fd2&#45;ba16&#45;46787a130dad</title>
<path fill="none" stroke="#333333" d="M113.21,-169.02C119.96,-171.21 126.87,-173.44 133.68,-175.65"/>
<polygon fill="#333333" stroke="#333333" points="133.13,-178.41 141.6,-178.21 134.85,-173.08 133.13,-178.41"/>
</g>
<!-- fe428691&#45;4b09&#45;4cbe&#45;9f90&#45;0e82cf972cb7 -->
<g id="node4" class="node">
<title>fe428691&#45;4b09&#45;4cbe&#45;9f90&#45;0e82cf972cb7</title>
<path fill="#f7f7ff" stroke="#4a4a8a" stroke-width="1.2" d="M229,-126C229,-126 160,-126 160,-126 154,-126 148,-120 148,-114 148,-114 148,-100 148,-100 148,-94 154,-88 160,-88 160,-88 229,-88 229,-88 235,-88 241,-94 241,-100 241,-100 241,-114 241,-114 241,-120 235,-126 229,-126"/>
<text text-anchor="start" x="163.5" y="-113" font-family="Helvetica,sans-Serif" font-weight="bold" font-size="10.00">message_2</text>
<text text-anchor="start" x="158.5" y="-97" font-family="Helvetica,sans-Serif" font-size="10.00">Type: Message</text>
</g>
<!-- 098f1371&#45;d6a5&#45;4e2d&#45;885c&#45;df286fb54f42&#45;&gt;fe428691&#45;4b09&#45;4cbe&#45;9f90&#45;0e82cf972cb7 -->
<g id="edge3" class="edge">
<title>098f1371&#45;d6a5&#45;4e2d&#45;885c&#45;df286fb54f42&#45;&gt;fe428691&#45;4b09&#45;4cbe&#45;9f90&#45;0e82cf972cb7</title>
<path fill="none" stroke="#333333" d="M113.21,-132.98C122.06,-130.11 131.2,-127.16 140,-124.31"/>
<polygon fill="#333333" stroke="#333333" points="140.88,-126.97 147.63,-121.84 139.15,-121.64 140.88,-126.97"/>
</g>
<!-- 74f286a9&#45;31e5&#45;4818&#45;97a0&#45;c333cdeb4f37 -->
<g id="node5" class="node">
<title>74f286a9&#45;31e5&#45;4818&#45;97a0&#45;c333cdeb4f37</title>
<path fill="#f7f7ff" stroke="#4a4a8a" stroke-width="1.2" d="M229,-38C229,-38 160,-38 160,-38 154,-38 148,-32 148,-26 148,-26 148,-12 148,-12 148,-6 154,0 160,0 160,0 229,0 229,0 235,0 241,-6 241,-12 241,-12 241,-26 241,-26 241,-32 235,-38 229,-38"/>
<text text-anchor="start" x="163.5" y="-25" font-family="Helvetica,sans-Serif" font-weight="bold" font-size="10.00">message_3</text>
<text text-anchor="start" x="158.5" y="-9" font-family="Helvetica,sans-Serif" font-size="10.00">Type: Message</text>
</g>
<!-- 098f1371&#45;d6a5&#45;4e2d&#45;885c&#45;df286fb54f42&#45;&gt;74f286a9&#45;31e5&#45;4818&#45;97a0&#45;c333cdeb4f37 -->
<g id="edge4" class="edge">
<title>098f1371&#45;d6a5&#45;4e2d&#45;885c&#45;df286fb54f42&#45;&gt;74f286a9&#45;31e5&#45;4818&#45;97a0&#45;c333cdeb4f37</title>
<path fill="none" stroke="#333333" d="M74.79,-131.94C91.51,-113.75 117.81,-85.82 142,-63 148.88,-56.51 156.51,-49.76 163.75,-43.55"/>
<polygon fill="#333333" stroke="#333333" points="165.98,-45.34 170.26,-38.02 162.35,-41.07 165.98,-45.34"/>
</g>
</g>
</svg>
