<?xml version="1.0" encoding="UTF-8" standalone="no"?>
<!-- Created with Inkscape (http://www.inkscape.org/) -->

<svg
   width="155mm"
   height="155.00002mm"
   viewBox="0 0 155 155.00002"
   version="1.1"
   id="svg1"
   xml:space="preserve"
   xmlns="http://www.w3.org/2000/svg"
   xmlns:svg="http://www.w3.org/2000/svg"><defs
     id="defs1" /><g
     id="layer2"
     style="display:inline"
     transform="translate(130.90605,-41.889938)"><g
       id="g3"><rect
         style="opacity:1;fill:#00407a;fill-opacity:1;stroke:none;stroke-width:0.2;paint-order:markers fill stroke"
         id="rect2"
         width="155"
         height="155"
         x="-130.90605"
         y="41.889938" /><rect
         style="opacity:1;fill:#ffffff;fill-opacity:1;stroke:none;stroke-width:0.2;paint-order:markers fill stroke"
         id="rect3"
         width="138.57341"
         height="100.79766"
         x="-123.61272"
         y="63.021915" /></g></g><g
     id="layer1"
     style="display:inline"
     transform="translate(-6.5453083,5.4232501)"><path
       style="display:inline;fill:#00407a;fill-opacity:1;stroke:none;stroke-width:0.547635"
       d="M 6.5756116,64.9783 V 11.463653 H 83.080296 159.58497 V 64.9783 118.49294 H 83.080296 6.5756116 Z m 50.7616344,45.89569 1.59385,-0.50981 v -2.18221 c 0,-2.22975 -0.0895,-2.64587 -0.46388,-2.15601 -0.37589,0.49188 -3.19944,1.27099 -5.04714,1.39268 -2.294804,0.15114 -3.573094,-0.20371 -4.821274,-1.33835 -0.65494,-0.59536 -1.0017,-1.11326 -1.26123,-1.88369 l -0.35793,-1.06256 6.362114,-0.0509 6.36211,-0.0509 0.0204,-0.52868 c 0.0788,-2.04225 10e-4,-3.792134 -0.20866,-4.692714 -1.26372,-5.42743 -7.16446,-7.937116 -12.414674,-5.28017 -1.34776,0.68206 -3.24835,2.64302 -3.90313,4.0271 -1.87303,3.959254 -1.17852,9.128124 1.61258,12.001704 0.82052,0.84478 2.08834,1.73386 3.0625,2.14766 1.67431,0.71119 2.43012,0.82067 5.165804,0.74826 2.26218,-0.0599 2.96548,-0.15501 4.29855,-0.58141 z M 47.146282,99.590656 c 0,-0.0894 0.12596,-0.58105 0.27993,-1.09262 0.84734,-2.81551 4.50426,-3.85903 6.506604,-1.85669 0.67588,0.67588 1.13103,1.75102 1.13333,2.67711 l 10e-4,0.43469 h -3.960474 c -2.17826,0 -3.96047,-0.0731 -3.96047,-0.16249 z m 66.977868,11.268824 c 2.50742,-0.83551 3.9827,-2.0651 4.96504,-4.13818 0.55462,-1.17044 0.60119,-1.4264 0.59994,-3.29747 -0.001,-1.82016 -0.054,-2.12856 -0.51399,-3.00226 -0.91228,-1.732824 -2.72646,-3.077444 -5.37272,-3.982134 -4.74841,-1.62336 -5.89674,-2.40205 -5.89674,-3.99858 0,-0.56251 0.13662,-1.12394 0.35438,-1.45629 1.13034,-1.725126 5.13705,-1.733846 8.87268,-0.0193 0.70431,0.32325 1.06629,0.59391 0.98592,0.73718 -0.0939,0.16737 -0.0661,0.17033 0.1067,0.0113 0.15822,-0.14557 0.23445,-0.982076 0.23601,-2.589606 l 0.002,-2.37457 -0.9109,-0.43902 c -2.53847,-1.22343 -6.88825,-1.54464 -9.38682,-0.69317 -2.24168,0.76392 -4.01918,2.24378 -4.82087,4.0136 -0.92309,2.037826 -0.77763,5.159136 0.31754,6.814066 0.97996,1.4808 3.01666,2.77361 5.98181,3.796964 2.37833,0.82084 3.80996,1.52623 4.42005,2.17786 0.50603,0.5405 0.54817,0.69064 0.46734,1.66537 -0.1005,1.21185 -0.42341,1.67535 -1.6031,2.30107 -1.13576,0.60241 -4.08736,0.584 -6.08073,-0.038 -1.48828,-0.46435 -3.16623,-1.23023 -3.67555,-1.67765 -0.2562,-0.22507 -0.28304,0.0545 -0.2316,2.41216 l 0.0582,2.66674 1.19757,0.4924 c 2.51288,1.03323 3.99937,1.30541 6.54667,1.19872 1.3349,-0.0559 2.30442,-0.2226 3.38089,-0.5813 z m 35.58447,-5.31052 c -0.0702,-3.02831 -0.1371,-8.790114 -0.14867,-12.803984 l -0.021,-7.297956 -3.02773,0.0532 -3.02772,0.0532 -2.20661,4.92643 c -1.21363,2.709536 -2.71543,6.096236 -3.33733,7.525996 -1.0104,2.322914 -1.14998,2.549074 -1.31157,2.125124 -0.0995,-0.260934 -1.22391,-2.821734 -2.49877,-5.690654 -1.27486,-2.86893 -2.68554,-6.063866 -3.13482,-7.099856 l -0.81689,-1.88363 h -3.16393 -3.16393 l -0.051,12.750786 -0.051,12.750814 2.55981,-3e-5 2.55982,-3e-5 0.008,-8.74201 c 0.007,-7.825324 0.0371,-8.674084 0.28886,-8.094174 0.15471,0.35631 0.22431,0.74753 0.15466,0.86937 -0.0697,0.12185 -0.0539,0.15547 0.035,0.0747 0.0889,-0.0807 0.57133,0.8321 1.07202,2.02853 0.50069,1.19644 1.38723,3.262054 1.97007,4.590264 0.58285,1.32821 1.30329,2.98002 1.60097,3.67068 0.29768,0.69067 0.62021,1.36038 0.71673,1.48826 0.12277,0.16266 0.75523,0.21151 2.10568,0.16263 1.06162,-0.0384 1.96106,-0.10072 1.99876,-0.13842 0.0377,-0.0377 0.89101,-1.98003 1.89624,-4.3163 1.00522,-2.33625 2.08272,-4.812834 2.39446,-5.503504 0.31172,-0.69066 0.67958,-1.5383 0.81745,-1.88363 0.13787,-0.34534 0.3162,-0.62788 0.39628,-0.62788 0.0801,0 0.14561,-0.22387 0.14561,-0.49748 0,-0.27361 0.0761,-0.57361 0.16904,-0.66665 0.0966,-0.0967 0.14595,3.63291 0.11514,8.702554 l -0.0539,8.87174 2.56542,0.0539 c 1.41099,0.0297 2.56713,0.054 2.5692,0.054 0.002,0 -0.0537,-2.47771 -0.12385,-5.50602 z m -116.072668,5.09791 c 2.62609,-0.7796 4.2283,-2.04101 5.1256,-4.03535 0.97198,-2.16032 0.68708,-5.23031 -0.64948,-6.998634 -0.59773,-0.79083 -2.20863,-1.78988 -2.8984,-1.79755 -0.40398,-0.004 -0.45877,-0.0467 -0.23272,-0.17905 0.16262,-0.0953 0.41384,-0.20128 0.55827,-0.23562 0.59877,-0.14237 2.16724,-1.82027 2.64439,-2.82889 0.45576,-0.96341 0.49773,-1.2409 0.42818,-2.83106 -0.0648,-1.480546 -0.16025,-1.904846 -0.59619,-2.648696 -0.76598,-1.30705 -2.26301,-2.56137 -3.67027,-3.07522 -1.14323,-0.41744 -1.53039,-0.44402 -7.48439,-0.51382 l -6.27879,-0.0736 0.051,12.764496 0.051,12.764514 h 5.95121 c 4.91175,0 6.13449,-0.0544 7.00054,-0.31151 z m -7.74097,-7.32625 v -3.422944 l 2.76555,0.0832 c 2.44678,0.0736 2.87542,0.137654 3.7187,0.555614 1.26502,0.627 1.82307,1.48125 1.82307,2.79074 0,1.25717 -0.54185,2.12641 -1.74622,2.80131 -0.79074,0.44311 -1.09715,0.48844 -3.7115,0.549 l -2.8496,0.066 z m 0,-10.508604 V 89.70708 l 1.98023,0.007 c 1.93803,0.007 3.71372,0.29781 4.55124,0.74604 1.09574,0.586416 1.38896,2.605436 0.56024,3.857716 -0.67491,1.01986 -1.70382,1.34365 -4.72509,1.48697 l -2.36662,0.11227 z m 47.139244,7.706514 V 90.07868 l 3.68332,0.0232 3.68332,0.0232 0.0357,-2.33414 0.0357,-2.33416 -9.98642,3e-5 -9.98641,4e-5 -0.0597,2.31469 -0.0597,2.31467 3.67068,0.0519 3.67068,0.0519 v 10.38417 10.38419 l 2.65641,-3e-5 2.65641,-2e-5 z m 16.09388,5.51341 -0.0922,-4.92643 h 4.83551 4.8355 l 0.0593,-2.366634 0.0593,-2.36662 -4.88295,0.0547 -4.88296,0.0547 0.0531,-3.14577 0.0531,-3.145776 5.10621,-0.0516 c 3.95629,-0.04 5.14119,0.003 5.26157,0.19319 0.0855,0.13463 0.15669,-0.90715 0.15832,-2.31504 l 0.003,-2.55981 h -7.9207 -7.92094 l 0.003,12.316076 c 0.002,6.773864 0.0551,12.511714 0.11914,12.750784 0.11338,0.42311 0.18482,0.43469 2.68098,0.43469 h 2.56454 z m -8.64311,-34.88913 c 3.53351,-0.65001 6.72912,-3.44487 7.69597,-6.73086 0.45105,-1.53296 0.46002,-17.700914 0.0108,-19.436904 -0.65907,-2.54683 -2.8913,-5.112098 -5.45371,-6.267373 -1.78463,-0.804607 -4.95836,-1.015289 -7.06782,-0.469182 -1.97868,0.512253 -3.18889,1.203906 -4.6708,2.669434 -1.95227,1.930701 -2.98823,4.284331 -2.98823,6.789041 v 0.85987 h 1.81954 c 1.00075,0 1.95705,0.0528 2.12513,0.11726 0.24668,0.0947 0.30559,-0.029 0.30559,-0.64111 0,-1.66623 0.84844,-3.51825 2.12298,-4.63414 0.77758,-0.68079 2.55164,-1.25754 3.90673,-1.27008 1.24567,-0.0115 3.24358,0.5135 3.24358,0.85238 0,0.10399 0.0721,0.14453 0.16014,0.0901 0.32345,-0.19991 1.56983,1.0817 2.0978,2.15709 l 0.54337,1.10677 v 8.30732 c 0,8.049574 -0.0127,8.334314 -0.40783,9.176704 -1.23746,2.63789 -4.46192,3.86727 -7.62408,2.9068 -1.15045,-0.34944 -1.56204,-0.59481 -2.38709,-1.42303 -1.09947,-1.10369 -1.56414,-2.22579 -1.77451,-4.28507 l -0.11842,-1.15917 -2.07724,0.0599 -2.07724,0.0599 0.0786,1.38907 c 0.13006,2.29971 0.74435,4.03272 2.09068,5.89814 2.17396,3.01215 6.4735,4.60796 10.44612,3.87717 z M 39.481612,70.1104 c 3.18871,-0.6101 6.26928,-2.36346 8.70894,-4.95682 2.17401,-2.311 3.58475,-4.984 4.043544,-7.661544 l 0.2069,-1.20746 11.40747,0.006 11.40748,0.006 -0.57958,0.5424 c -0.56676,0.5304 -0.63683,0.65893 -0.81707,1.49891 -0.15549,0.724614 1.09816,1.639994 2.00788,1.466094 0.4834,-0.0924 4.3776,-3.605844 4.94182,-4.458604 0.18525,-0.27999 0.33739,-0.79037 0.33809,-1.13418 0.001,-0.54463 -0.30341,-0.92479 -2.36535,-2.95285 -1.30164,-1.28026 -2.56223,-2.37764 -2.80131,-2.43864 -0.71872,-0.18336 -1.39073,0.0985 -1.78656,0.74942 -0.41978,0.69027 -0.35423,1.28619 0.23404,2.12778 l 0.37137,0.53128 -2.08999,0.0194 c -1.14949,0.0107 -6.17603,0.008 -11.17009,-0.007 l -9.08009,-0.0262 -0.12664,-0.84697 c -0.658484,-4.4036 -3.761824,-9.00512 -7.584064,-11.245268 -2.84616,-1.668092 -5.1803,-2.291277 -8.51757,-2.274085 -2.23205,0.0115 -2.68349,0.07299 -4.05706,0.552593 -4.37814,1.528702 -7.52656,4.22952 -9.47527,8.12818 -1.26645,2.5337 -1.65014,4.01996 -1.77059,6.85838 -0.20301,4.78435 1.14622,8.553274 4.26275,11.907464 2.30598,2.48184 5.44649,4.25725 8.63787,4.8832 1.3607,0.26689 4.07639,0.23473 5.65308,-0.0669 z m -4.41447,-3.95954 c -3.73207,-0.59118 -7.05978,-2.95919 -8.67906,-6.17606 -0.8283,-1.645514 -1.05643,-2.456894 -1.25207,-4.453304 -0.29214,-2.98099 0.29982,-5.76518 1.72847,-8.12968 2.02893,-3.35799 5.63115,-5.40683 9.4954,-5.40071 3.07241,0.005 5.32186,0.7756 7.54204,2.58414 3.19464,2.60234 4.94936,7.01364 4.40802,11.08161 -0.41194,3.095494 -1.47268,5.188354 -3.68961,7.279704 -2.64533,2.49547 -6.30907,3.72818 -9.55319,3.2143 z m 69.660938,0.56103 c 1.22034,-0.62257 2.43466,-1.84887 3.02874,-3.05861 0.46743,-0.95182 0.53421,-1.31019 0.52709,-2.82865 -0.007,-1.48933 -0.0807,-1.87841 -0.51399,-2.712464 -0.58047,-1.11738 -1.87648,-2.38707 -3.04508,-2.98325 l -0.80433,-0.41035 0.0607,-4.67471 c 0.0572,-4.41204 0.0843,-4.71271 0.48199,-5.3509 0.23174,-0.37189 0.70989,-0.85005 1.06256,-1.06256 0.59866,-0.36074 1.04204,-0.39027 6.67852,-0.44486 l 6.03731,-0.0585 -0.005,5.85428 -0.005,5.85428 -0.81609,0.37646 c -1.18659,0.54737 -2.54278,1.9028 -3.06143,3.05972 -0.67984,1.516454 -0.65174,3.899884 0.0631,5.355434 0.86601,1.7633 2.48944,3.16865 4.11415,3.56149 0.31877,0.0771 1.13374,0.13602 1.81104,0.13099 2.19264,-0.0163 4.33727,-1.35079 5.58077,-3.47266 0.65128,-1.11133 0.70305,-1.34298 0.69697,-3.11903 -0.003,-0.96619 -0.12014,-1.70642 -0.35066,-2.22172 -0.19014,-0.425034 -0.33076,-0.799304 -0.31249,-0.831714 0.10709,-0.18987 -2.15075,-2.12657 -2.83728,-2.43372 l -0.82113,-0.36734 v -5.86306 -5.86307 l 5.55432,10e-4 c 3.27961,5.5e-4 5.85318,0.0841 6.28407,0.20373 1.08458,0.30119 1.98675,1.18611 2.24177,2.1989 0.12679,0.50353 0.21617,2.61177 0.21617,5.09882 v 4.24033 l -0.7774,0.31105 c -1.11073,0.44443 -2.34446,1.66014 -3.0023,2.95844 -0.4981,0.983044 -0.56623,1.319254 -0.55952,2.761474 0.006,1.38775 0.0901,1.81244 0.53984,2.74144 1.36313,2.8156 4.57917,4.27121 7.62487,3.45109 1.84174,-0.49593 4.04465,-2.88578 4.46447,-4.84333 0.28347,-1.3218 0.26602,-1.8651 -0.0994,-3.09575 -0.55572,-1.871294 -1.99732,-3.477794 -3.66052,-4.079204 l -0.63941,-0.23122 -0.0617,-5.32714 c -0.0615,-5.31517 -0.0628,-5.32963 -0.57962,-6.43228 -0.92583,-1.97532 -2.80695,-3.407666 -5.02872,-3.829017 -0.53792,-0.102013 -3.57428,-0.185478 -6.74747,-0.185478 h -5.76945 v -4.792662 -4.792662 l 0.80689,-0.355997 c 0.44378,-0.195798 1.18969,-0.738803 1.65756,-1.206677 2.61451,-2.614507 2.49589,-6.646625 -0.268,-9.110043 -1.31478,-1.171841 -2.53467,-1.612386 -4.44405,-1.604898 -1.2559,0.0049 -1.66051,0.0959 -2.69793,0.606621 -1.33052,0.655016 -2.32827,1.672151 -3.02279,3.081515 -0.66931,1.358231 -0.6164,3.574013 0.12375,5.182042 0.6237,1.355056 1.74942,2.508236 2.97737,3.050005 l 0.81014,0.357432 v 4.775016 4.775018 l -6.42818,0.06594 -6.42816,0.06595 -1.26424,0.622585 c -1.5614,0.768935 -2.77046,1.94349 -3.43592,3.33788 -0.50364,1.05531 -0.50749,1.09856 -0.56415,6.32827 l -0.057,5.2657 -0.977664,0.49542 c -3.06868,1.55502 -4.3519,5.202444 -2.9063,8.260894 0.30957,0.65495 0.78329,1.42453 1.05271,1.71017 0.26943,0.28565 0.43379,0.57544 0.36525,0.64398 -0.0685,0.0685 -0.0377,0.0987 0.0686,0.067 0.10625,-0.0316 0.56451,0.18069 1.01835,0.4719 1.716724,1.10155 4.249714,1.23615 6.043304,0.32112 z m -4.40369,-4.12965 c -0.589514,-0.54023 -0.717224,-0.78969 -0.717044,-1.40065 4.7e-4,-1.62535 0.854224,-2.57869 2.309334,-2.57869 2.27041,0 3.22917,2.4988 1.53664,4.00492 -0.57362,0.51043 -0.87332,0.63173 -1.56081,0.63173 -0.69844,0 -0.97937,-0.11776 -1.56812,-0.65731 z m 18.16405,-0.0231 c -0.64703,-0.64703 -0.67607,-0.733 -0.59163,-1.75129 0.12382,-1.4931 0.68874,-2.0463 2.17501,-2.12989 1.00012,-0.0562 1.14157,-0.0108 1.74412,0.55976 0.36065,0.34153 0.67027,0.79483 0.68804,1.00735 0.10267,1.22783 -0.0329,1.70149 -0.66904,2.33764 -0.57859,0.57859 -0.77656,0.65686 -1.66147,0.65686 -0.89172,0 -1.08106,-0.0765 -1.68503,-0.68043 z m 18.8334,0.37801 c -1.01548,-0.551 -1.36189,-1.81973 -0.83872,-3.07184 0.35206,-0.8426 1.202,-1.28792 2.28581,-1.19763 1.11146,0.0926 1.57726,0.37029 1.95449,1.16522 0.36847,0.7765 0.37882,0.94728 0.11499,1.89719 -0.35996,1.29604 -2.193,1.92522 -3.51657,1.20706 z M 119.59667,25.741091 c -0.96589,-0.206721 -1.74152,-1.142096 -1.74152,-2.100196 0,-1.405632 0.6972,-2.256169 1.98917,-2.426663 1.55614,-0.205353 2.64748,0.722315 2.64748,2.250433 0,1.58515 -1.31048,2.615573 -2.89513,2.276426 z"
       id="path1" /></g></svg>
